<svg width="158" height="52" viewBox="0 0 158 52" fill="none" xmlns="http://www.w3.org/2000/svg">
<path d="M46.2198 39.5394C45.1402 39.1566 44.9356 38.9015 44.9356 38.4625C44.9356 38.0235 45.2462 37.6746 45.9849 37.6746C46.5266 37.6746 46.8865 37.8509 47.2805 38.1736L47.6669 37.7046C47.2123 37.3444 46.7501 37.1343 46.0228 37.1343C45.0152 37.1343 44.3333 37.6446 44.3333 38.5C44.3333 39.273 44.7273 39.6482 45.894 40.0609C46.8827 40.4136 47.182 40.695 47.182 41.1903C47.182 41.7568 46.735 42.1095 46.019 42.1095C45.4622 42.1095 44.9924 41.8544 44.5833 41.4679L44.1855 41.9107C44.6098 42.3384 45.2652 42.6536 46.0001 42.6536C47.1252 42.6536 47.7881 42.0007 47.7881 41.164C47.7881 40.3273 47.4206 39.9708 46.2236 39.5431L46.2198 39.5394Z" fill="#004289"/>
<path d="M50.2354 38.4738C49.7089 38.4738 49.2316 38.6014 48.8755 38.7927L49.0952 39.258C49.4248 39.0666 49.7733 38.9503 50.1976 38.9503C50.7885 38.9503 51.0764 39.2392 51.0764 39.8396V40.3123C50.8378 40.181 50.4703 40.0797 50.065 40.0797C49.2657 40.0797 48.5156 40.4624 48.5156 41.3629C48.5156 42.3309 49.1785 42.6461 49.8074 42.6461C50.3908 42.6461 50.7885 42.376 51.0764 42.0721V42.5636H51.6522V39.7645C51.6522 38.834 51.1067 38.4663 50.2354 38.4663V38.4738ZM51.0764 41.5843C50.8302 41.9182 50.4362 42.1846 49.9134 42.1846C49.4172 42.1846 49.0838 41.9257 49.0838 41.3291C49.0838 40.8264 49.4399 40.5412 50.0347 40.5412C50.5271 40.5412 50.8112 40.6313 51.0764 40.7738V41.588V41.5843Z" fill="#004289"/>
<path d="M57.4634 40.2186V42.5674H58.0392V40.1248C58.0392 38.9541 57.524 38.4739 56.6982 38.4739C56.0391 38.4739 55.7095 38.7778 55.4709 39.1605C55.2777 38.7778 54.933 38.4739 54.3609 38.4739C53.8836 38.4739 53.5427 38.7028 53.3343 39.0479V38.5602H52.751V42.5711H53.3343V40.2223C53.3343 39.3331 53.6791 38.9692 54.2359 38.9692C54.7928 38.9692 55.1072 39.3031 55.1072 40.2223V42.5711H55.6868V40.2223C55.6868 39.3331 56.0391 38.9692 56.5884 38.9692C57.1718 38.9692 57.4596 39.3031 57.4596 40.2223L57.4634 40.2186Z" fill="#004289"/>
<path d="M60.3612 40.2334C59.6755 39.9258 59.471 39.7945 59.471 39.453C59.471 39.1604 59.7134 38.9577 60.1415 38.9577C60.5695 38.9577 60.8347 39.0703 61.1491 39.3179L61.4711 38.894C61.1643 38.6426 60.7324 38.47 60.1793 38.47C59.4407 38.47 58.9141 38.8827 58.9141 39.4905C58.9141 40.1321 59.2512 40.376 60.0657 40.7212C60.7817 41.0251 61.0203 41.209 61.0203 41.5392C61.0203 41.9294 60.7589 42.1583 60.2021 42.1583C59.8005 42.1583 59.4217 41.9969 59.0997 41.7155L58.7588 42.132C59.1452 42.4397 59.6301 42.646 60.1869 42.646C60.8877 42.646 61.5734 42.3046 61.5734 41.5129C61.5734 40.7963 61.1264 40.5749 60.3574 40.2297L60.3612 40.2334Z" fill="#004289"/>
<path d="M64.9522 40.9014C64.9522 41.7794 64.509 42.1509 63.9522 42.1509C63.3006 42.1509 62.9938 41.7644 62.9938 40.9014V38.5564H62.418V40.999C62.418 42.1509 62.9824 42.6499 63.8347 42.6499C64.3461 42.6499 64.7212 42.4135 64.9522 42.0758V42.5674H65.5318V38.5564H64.9522V40.9014Z" fill="#004289"/>
<path d="M69.6225 42.5674V40.1248C69.6225 38.9692 69.0581 38.4739 68.202 38.4739C67.6944 38.4739 67.3156 38.7103 67.0883 39.0479V38.5602H66.5049V42.5711H67.0883V40.2223C67.0883 39.3444 67.5239 38.9692 68.0845 38.9692C68.7323 38.9692 69.0429 39.3594 69.0429 40.2223V42.5711H69.6225V42.5674Z" fill="#004289"/>
<path d="M71.4449 43.6028L71.6305 44.0381C73.1344 43.993 73.6799 43.4115 73.6799 42.2033V38.5525H73.1003V39.0028C72.8162 38.6801 72.4677 38.47 71.9601 38.47C71.1116 38.47 70.4297 39.2016 70.4297 40.6237C70.4297 42.0457 71.0737 42.646 71.8806 42.646C72.4298 42.646 72.8162 42.3759 73.1003 42.072V42.2783C73.1003 43.2126 72.7935 43.5653 71.4411 43.5991L71.4449 43.6028ZM72.0283 42.1508C71.3881 42.1508 71.0017 41.6255 71.0017 40.6162C71.0017 39.5393 71.3313 38.9652 72.0056 38.9652C72.4867 38.9652 72.8768 39.2316 73.1003 39.5656V41.5729C72.8162 41.9256 72.4601 42.1508 72.0283 42.1508Z" fill="#004289"/>
<path d="M80.0672 39.8545C80.0672 38.0197 79.0217 37.2168 77.6049 37.2168H76.1768V42.5673H77.4988C78.9421 42.5673 80.0672 41.7943 80.0672 39.8545ZM76.7791 37.7571H77.5594C78.802 37.7571 79.4649 38.5075 79.4649 39.8733C79.4649 41.4116 78.7375 42.0232 77.5746 42.0232H76.7791V37.7571Z" fill="#004289"/>
<path d="M81.6089 39.0516V38.5563H81.0293V42.5673H81.6089V40.211C81.6089 39.4456 81.9271 38.9991 82.4915 38.9991C82.7605 38.9991 82.9347 39.0591 83.0976 39.1529L83.2416 38.5751C83.1052 38.5151 82.912 38.4775 82.609 38.4775C82.1733 38.4775 81.7907 38.7364 81.6089 39.0554V39.0516Z" fill="#004289"/>
<path d="M86.7042 42.1846L86.4314 41.7719C86.0602 42.0157 85.7837 42.1546 85.3101 42.1546C84.651 42.1546 84.2381 41.6105 84.1851 40.7588H86.8822C86.9012 40.665 86.9087 40.5825 86.9087 40.4474C86.9087 39.303 86.3329 38.4775 85.276 38.4775C84.3139 38.4775 83.6055 39.2692 83.6055 40.5412C83.6055 42.1208 84.507 42.6536 85.2495 42.6536C85.8594 42.6536 86.2155 42.4923 86.7042 42.1883V42.1846ZM85.276 38.9691C85.9844 38.9691 86.3254 39.5131 86.3708 40.2898H84.1851C84.2532 39.393 84.6737 38.9691 85.276 38.9691Z" fill="#004289"/>
<path d="M88.8402 42.6498C89.4198 42.6498 89.8176 42.3796 90.1017 42.0757V42.5672H90.6813V39.7682C90.6813 38.8377 90.1358 38.47 89.2645 38.47C88.738 38.47 88.2606 38.5975 87.9046 38.7889L88.1205 39.2542C88.4538 39.0628 88.7986 38.9465 89.2228 38.9465C89.8176 38.9465 90.1017 39.2354 90.1017 39.8357V40.3085C89.863 40.1772 89.4994 40.0759 89.094 40.0759C88.291 40.0759 87.5371 40.4586 87.5371 41.3591C87.5371 42.3271 88.2038 42.6423 88.8364 42.6423L88.8402 42.6498ZM89.0637 40.5374C89.5562 40.5374 89.8441 40.6274 90.1055 40.77V41.5842C89.8592 41.9181 89.4653 42.1845 88.9425 42.1845C88.4501 42.1845 88.1129 41.9256 88.1129 41.3291C88.1129 40.8263 88.4728 40.5411 89.0637 40.5411V40.5374Z" fill="#004289"/>
<path d="M96.4922 40.2186V42.5674H97.0718V40.1248C97.0718 38.9541 96.5566 38.4739 95.7308 38.4739C95.0755 38.4739 94.7421 38.7778 94.5072 39.1605C94.314 38.7778 93.9693 38.4739 93.3973 38.4739C92.9162 38.4739 92.5791 38.7028 92.3707 39.0479V38.5602H91.7949V42.5711H92.3707V40.2223C92.3707 39.3331 92.7192 38.9692 93.2761 38.9692C93.8329 38.9692 94.1511 39.3031 94.1511 40.2223V42.5711H94.7269V40.2223C94.7269 39.3331 95.0792 38.9692 95.6323 38.9692C96.2157 38.9692 96.5036 39.3031 96.5036 40.2223L96.4922 40.2186Z" fill="#004289"/>
<path d="M46.2198 47.4975C45.1364 47.1148 44.9394 46.8634 44.9394 46.4207C44.9394 45.9779 45.25 45.6365 45.9887 45.6365C46.5304 45.6365 46.8941 45.8091 47.2843 46.1318L47.6706 45.6665C47.2161 45.3101 46.7501 45.0962 46.0266 45.0962C45.0152 45.0962 44.3371 45.599 44.3371 46.4619C44.3371 47.2349 44.731 47.6063 45.8978 48.0191C46.8865 48.3755 47.1858 48.6532 47.1858 49.1522C47.1858 49.715 46.7388 50.0677 46.019 50.0677C45.4622 50.0677 44.9924 49.8125 44.5833 49.4261L44.1855 49.8688C44.6098 50.2966 45.2652 50.608 46.0001 50.608C47.1252 50.608 47.7843 49.9589 47.7843 49.1184C47.7843 48.278 47.4168 47.9253 46.2236 47.4975H46.2198Z" fill="#004289"/>
<path d="M50.2426 46.9272C50.6518 46.9272 50.9207 47.0698 51.2124 47.3325L51.5609 46.9047C51.2427 46.6271 50.8222 46.4282 50.2805 46.4282C49.432 46.4282 48.5342 47.0548 48.5342 48.5369C48.5342 49.9364 49.3486 50.6043 50.2388 50.6043C50.8071 50.6043 51.201 50.3904 51.542 50.0452L51.1935 49.6813C50.9169 49.9477 50.6555 50.1053 50.2616 50.1053C49.5456 50.1053 49.1176 49.4712 49.1176 48.4844C49.1176 47.4976 49.6062 46.9197 50.2388 46.9197L50.2426 46.9272Z" fill="#004289"/>
<path d="M54.035 46.432C53.5274 46.432 53.1448 46.6684 52.9137 47.0061V45.1226H52.3379V50.533H52.9137V48.1842C52.9137 47.3063 53.3569 46.9311 53.9175 46.9311C54.5691 46.9311 54.876 47.3175 54.876 48.1842V50.533H55.4555V48.0829C55.4555 46.9311 54.8911 46.432 54.035 46.432Z" fill="#004289"/>
<path d="M58.0386 46.4321C57.0537 46.4321 56.2695 47.1638 56.2695 48.5258C56.2695 49.8878 57.0234 50.6119 58.0083 50.6119C58.9932 50.6119 59.7849 49.8578 59.7849 48.4958C59.7849 47.1338 59.0235 46.4321 58.0386 46.4321ZM58.0272 50.1129C57.3226 50.1129 56.8491 49.5651 56.8491 48.5108C56.8491 47.4564 57.3226 46.9312 58.0272 46.9312C58.7318 46.9312 59.2053 47.4564 59.2053 48.5108C59.2053 49.5651 58.728 50.1129 58.0272 50.1129Z" fill="#004289"/>
<path d="M61.2358 45.1189H60.6562V50.5294H61.2358V45.1189Z" fill="#004289"/>
<path d="M63.884 46.4321C63.3574 46.4321 62.8801 46.5635 62.5278 46.7548L62.7438 47.2238C63.0771 47.0325 63.4256 46.9161 63.8499 46.9161C64.4409 46.9161 64.7288 47.2088 64.7288 47.8016V48.2781C64.4901 48.1468 64.1264 48.0455 63.7211 48.0455C62.918 48.0455 62.168 48.4282 62.168 49.3325C62.168 50.3005 62.8309 50.6119 63.4635 50.6119C64.0431 50.6119 64.4409 50.3455 64.7288 50.0416V50.5331H65.3083V47.7379C65.3083 46.7998 64.7591 46.4359 63.8878 46.4359L63.884 46.4321ZM64.725 49.5426C64.4825 49.8728 64.081 50.1429 63.562 50.1429C63.0695 50.1429 62.7362 49.884 62.7362 49.2875C62.7362 48.7809 63.0923 48.5033 63.687 48.5033C64.1795 48.5033 64.4636 48.5858 64.725 48.7322V49.5426Z" fill="#004289"/>
<path d="M66.9868 47.0136V46.5109H66.4072V50.5256H66.9868V48.1693C66.9868 47.4076 67.2974 46.9536 67.8657 46.9536C68.1384 46.9536 68.3127 47.0136 68.4756 47.1074L68.6233 46.5259C68.4831 46.4658 68.2937 46.4246 67.9907 46.4246C67.5588 46.4246 67.1686 46.6835 66.9906 47.0099L66.9868 47.0136Z" fill="#004289"/>
<path d="M70.8425 48.1956C70.1568 47.8879 69.9485 47.7491 69.9485 47.4152C69.9485 47.1263 70.1947 46.9199 70.619 46.9199C71.0433 46.9199 71.316 47.0362 71.6304 47.2801L71.9524 46.8599C71.6418 46.6085 71.2137 46.4321 70.6569 46.4321C69.922 46.4321 69.3879 46.8449 69.3879 47.4564C69.3879 48.068 69.7288 48.3419 70.5395 48.6834C71.2554 48.9873 71.4941 49.1749 71.4941 49.5013C71.4941 49.8953 71.2327 50.1204 70.6796 50.1204C70.2743 50.1204 69.8993 49.9591 69.5735 49.6777L69.2363 50.0979C69.6227 50.4056 70.1076 50.6082 70.6645 50.6082C71.3653 50.6082 72.0509 50.263 72.0509 49.4788C72.0509 48.7584 71.6039 48.5408 70.8387 48.1956H70.8425Z" fill="#004289"/>
<path d="M74.695 46.432C74.1798 46.432 73.8048 46.6684 73.5737 47.0061V45.1226H72.9941V50.533H73.5737V48.1842C73.5737 47.3063 74.0132 46.9311 74.5776 46.9311C75.2254 46.9311 75.5322 47.3175 75.5322 48.1842V50.533H76.1118V48.0829C76.1118 46.9311 75.5511 46.432 74.695 46.432Z" fill="#004289"/>
<path d="M77.8317 46.5107H77.2559V50.5255H77.8317V46.5107Z" fill="#004289"/>
<path d="M77.5553 44.98C77.3204 44.98 77.1348 45.1638 77.1348 45.3965C77.1348 45.6291 77.3204 45.8017 77.5553 45.8017C77.7712 45.8017 77.9568 45.6141 77.9568 45.3965C77.9568 45.1638 77.7712 44.98 77.5553 44.98Z" fill="#004289"/>
<path d="M80.7984 46.4321C80.2529 46.4321 79.8665 46.7023 79.5786 47.0062V46.5147H78.999V52.004H79.5786V50.0791C79.8627 50.3981 80.2112 50.6119 80.7226 50.6119C81.5674 50.6119 82.2493 49.8765 82.2493 48.4582C82.2493 47.04 81.6053 46.4321 80.7984 46.4321ZM80.6734 50.1129C80.1961 50.1129 79.8021 49.8465 79.5786 49.5088V47.5052C79.8627 47.1563 80.2188 46.9274 80.6507 46.9274C81.2946 46.9274 81.681 47.4527 81.681 48.462C81.681 49.5388 81.3477 50.1092 80.6772 50.1092L80.6734 50.1129Z" fill="#004289"/>
<path d="M85.3133 45.7193H87.8816V45.179H84.7109V50.5294H85.3133V48.0343H86.7944V47.494H85.3133V45.7193Z" fill="#004289"/>
<path d="M89.64 46.4321C88.6551 46.4321 87.8672 47.1638 87.8672 48.5258C87.8672 49.8878 88.6248 50.6119 89.6097 50.6119C90.5947 50.6119 91.3864 49.8578 91.3864 48.4958C91.3864 47.1338 90.6325 46.4321 89.64 46.4321ZM89.6249 50.1129C88.9203 50.1129 88.4544 49.5651 88.4544 48.5108C88.4544 47.4564 88.9241 46.9312 89.6249 46.9312C90.3257 46.9312 90.8068 47.4564 90.8068 48.5108C90.8068 49.5651 90.3295 50.1129 89.6249 50.1129Z" fill="#004289"/>
<path d="M94.5792 48.8595C94.5792 49.7375 94.1436 50.1127 93.5791 50.1127C92.9314 50.1127 92.6207 49.7263 92.6207 48.8595V46.5107H92.0449V48.9571C92.0449 50.109 92.6094 50.608 93.4655 50.608C93.9693 50.608 94.3481 50.3754 94.5792 50.0377V50.5292H95.1626V46.5145H94.5792V48.8633V48.8595Z" fill="#004289"/>
<path d="M97.8299 46.432C97.3223 46.432 96.9435 46.6684 96.7124 47.006V46.5145H96.1328V50.5292H96.7124V48.1804C96.7124 47.3025 97.1518 46.9272 97.7163 46.9272C98.364 46.9272 98.6709 47.3137 98.6709 48.1804V50.5292H99.2505V48.0791C99.2505 46.9272 98.686 46.4282 97.8299 46.4282V46.432Z" fill="#004289"/>
<path d="M102.731 46.9687C102.443 46.646 102.099 46.4284 101.587 46.4284C100.739 46.4284 100.061 47.16 100.061 48.5858C100.061 50.0116 100.701 50.6082 101.511 50.6082C102.061 50.6082 102.443 50.3418 102.727 50.0379V50.5294H103.307V45.1189H102.727V46.9687H102.731ZM102.731 49.5313C102.443 49.8803 102.091 50.1092 101.659 50.1092C101.019 50.1092 100.633 49.5839 100.633 48.5746C100.633 47.494 100.962 46.9236 101.636 46.9236C102.114 46.9236 102.504 47.19 102.731 47.5277V49.5276V49.5313Z" fill="#004289"/>
<path d="M105.762 46.4321C105.239 46.4321 104.762 46.5635 104.406 46.7548L104.618 47.2238C104.951 47.0325 105.3 46.9161 105.724 46.9161C106.315 46.9161 106.599 47.2088 106.599 47.8016V48.2781C106.36 48.1468 105.997 48.0455 105.587 48.0455C104.788 48.0455 104.038 48.4282 104.038 49.3325C104.038 50.3005 104.705 50.6119 105.337 50.6119C105.917 50.6119 106.315 50.3455 106.599 50.0416V50.5331H107.178V47.7379C107.178 46.7998 106.633 46.4359 105.758 46.4359L105.762 46.4321ZM106.599 49.5426C106.353 49.8728 105.962 50.1429 105.432 50.1429C104.943 50.1429 104.614 49.884 104.614 49.2875C104.614 48.7809 104.966 48.5033 105.561 48.5033C106.053 48.5033 106.341 48.5858 106.599 48.7322V49.5426Z" fill="#004289"/>
<path d="M109.028 45.1189H108.444V46.5109H107.944V46.9949H108.444V49.7002C108.444 50.3643 108.717 50.6044 109.221 50.6044C109.524 50.6044 109.74 50.5594 109.963 50.4694L110.005 49.9741C109.819 50.0491 109.668 50.0866 109.433 50.0866C109.126 50.0866 109.028 49.9628 109.028 49.6064V46.9949H110.032V46.5109H109.028V45.1189Z" fill="#004289"/>
<path d="M111.346 44.98C111.107 44.98 110.918 45.1638 110.918 45.3965C110.918 45.6291 111.107 45.8017 111.346 45.8017C111.562 45.8017 111.744 45.6141 111.744 45.3965C111.744 45.1638 111.558 44.98 111.346 44.98Z" fill="#004289"/>
<path d="M111.623 46.5107H111.043V50.5255H111.623V46.5107Z" fill="#004289"/>
<path d="M114.266 46.4321C113.281 46.4321 112.493 47.1638 112.493 48.5258C112.493 49.8878 113.247 50.6119 114.236 50.6119C115.224 50.6119 116.009 49.8578 116.009 48.4958C116.009 47.1338 115.251 46.4321 114.266 46.4321ZM114.251 50.1129C113.55 50.1129 113.077 49.5651 113.077 48.5108C113.077 47.4564 113.55 46.9312 114.251 46.9312C114.952 46.9312 115.433 47.4564 115.433 48.5108C115.433 49.5651 114.955 50.1129 114.251 50.1129Z" fill="#004289"/>
<path d="M118.544 46.432C118.036 46.432 117.657 46.6684 117.422 47.006V46.5145H116.843V50.5292H117.422V48.1804C117.422 47.3025 117.862 46.9272 118.426 46.9272C119.074 46.9272 119.385 47.3137 119.385 48.1804V50.5292H119.96V48.0791C119.96 46.9272 119.396 46.4282 118.544 46.4282V46.432Z" fill="#004289"/>
<path d="M66.4712 26.6848C64.1453 26.6886 62.2285 28.4896 62.2285 30.7483C62.2285 33.0071 64.1453 34.7893 66.4712 34.7968C68.8199 34.7893 70.7178 32.9845 70.7178 30.7483C70.7178 28.5121 68.8199 26.6886 66.4712 26.6848ZM66.4144 32.9433C65.1984 32.9433 64.2817 31.9602 64.2817 30.7483C64.2817 29.5364 65.2628 28.5346 66.475 28.5346C67.6872 28.5346 68.6343 29.5176 68.6343 30.7483C68.6343 31.979 67.6418 32.9433 66.4182 32.9433H66.4144Z" fill="#004289"/>
<path d="M47.0035 23.8894C47.6513 24.5235 48.3938 25.0788 49.1249 25.4353L49.2006 25.4766L50.4545 24.0095L50.3333 23.942C49.1438 23.3041 48.2119 22.4974 47.602 21.4806C46.9959 20.4788 46.6853 19.3157 46.6853 17.9236V16.6179H44.4427V17.7848C44.4427 19.2931 44.098 20.4788 43.4502 21.5181C42.7267 22.67 41.6546 23.5968 40.2833 24.456L40.1621 24.531L41.5221 25.9268L41.5978 25.8855C42.4085 25.4503 43.2684 24.7787 44.0147 24.0283C44.6624 23.3717 45.2231 22.67 45.564 22.0059C45.8936 22.6588 46.3974 23.3229 47.0035 23.8932V23.8894Z" fill="#004289"/>
<path d="M44.5752 33.8361H53.9622V27.4839H44.5752V33.8361ZM46.6852 29.2774H51.8522V32.0427H46.6852V29.2774Z" fill="#004289"/>
<path d="M75.873 33.8361H86.4874V27.4839H75.873V33.8361ZM77.9603 29.2774H84.404V32.0427H77.9603V29.2774Z" fill="#004289"/>
<path d="M54.0004 16.2427H51.9131V26.756H54.0004V22.1034H56.4437V20.2349H54.0004V16.2427Z" fill="#004289"/>
<path d="M97.2763 24.4259C97.962 25.015 98.7461 25.5103 99.4848 25.8292L99.5606 25.863L100.689 24.3509L100.568 24.2908C99.4924 23.7468 98.534 23.0714 97.8445 22.246C97.1437 21.4055 96.727 20.3924 96.727 19.173V18.8166H99.8333V17.0081H91.4009V18.8166H94.5034V19.2518C94.5034 20.3624 94.1322 21.398 93.5147 22.2947C92.7911 23.3716 91.7343 24.2383 90.7077 24.8011L90.5713 24.8724L91.9578 26.2944L92.0335 26.2569C92.7798 25.8367 93.6056 25.2026 94.3102 24.4897C94.8746 23.9044 95.3822 23.2853 95.6929 22.6662C96.0679 23.2665 96.6437 23.8668 97.2801 24.4259H97.2763Z" fill="#004289"/>
<path d="M112.372 29.3186H119.96V33.8324H122.066V27.5251H112.372V29.3186Z" fill="#004289"/>
<path d="M117.607 22.0885C117.607 21.0942 117.156 20.1787 116.49 19.4808H118.573V17.691H114.596V15.7212H112.334V17.691H108.262V19.4808H110.391C109.739 20.1787 109.288 21.0867 109.288 22.0885C109.288 24.3059 111.133 26.1069 113.44 26.1144C115.747 26.1069 117.603 24.3059 117.607 22.0885ZM111.3 22.0059C111.3 20.779 112.345 19.7397 113.44 19.7397C114.535 19.7397 115.577 20.7827 115.58 22.0059C115.58 23.2141 114.535 24.2572 113.44 24.2609C112.342 24.2572 111.304 23.2141 111.3 22.0059Z" fill="#004289"/>
<path d="M122.066 16.2427H119.982V26.7935H122.066V22.7675H124.517V20.899H122.066V16.2427Z" fill="#004289"/>
<path d="M104.386 16.2427H102.303V26.7935H104.386V22.1034H106.833V20.2349H104.386V16.2427Z" fill="#004289"/>
<path d="M69.0198 19.3719H65.7393V21.2217H69.0198V27.1274H71.1071V16.2427H69.0198V19.3719Z" fill="#004289"/>
<path d="M63.721 24.1633C64.3726 24.7937 65.134 25.349 65.8613 25.7242L65.9409 25.7692L67.1947 24.3022L67.0735 24.2346C65.884 23.6155 64.9711 22.8126 64.3574 21.8108C63.7362 20.8165 63.4255 19.6083 63.4255 18.2163V16.6179H61.1792V18.0812C61.1792 19.5896 60.8382 20.7715 60.2056 21.792C59.4859 22.9627 58.3911 23.8969 57.0198 24.7487L56.9023 24.8237L58.2699 26.2232L58.3381 26.1782C59.1449 25.7392 59.9859 25.1051 60.7322 24.381C61.4065 23.7168 61.9671 22.9927 62.308 22.2986C62.63 22.9327 63.1225 23.578 63.721 24.1671V24.1633Z" fill="#004289"/>
<path d="M99.9125 26.6848C97.5866 26.6886 95.6698 28.4896 95.666 30.7483C95.6698 32.9845 97.5828 34.7893 99.9125 34.7968C102.257 34.7893 104.159 32.9845 104.159 30.7483C104.159 28.5121 102.257 26.6886 99.9125 26.6848ZM99.8519 32.9433C98.6397 32.9433 97.7154 31.9602 97.7154 30.7483C97.7154 29.5364 98.6928 28.5346 99.9125 28.5346C101.132 28.5346 102.068 29.5176 102.072 30.7483C102.072 31.9565 101.075 32.9433 99.8519 32.9433Z" fill="#004289"/>
<path d="M78.4149 22.2723H80.5021V16.9031H74.8691V18.6891H78.4149V22.2723Z" fill="#004289"/>
<path d="M84.6806 22.2723H86.7717V16.9031H81.1387V18.6891H84.6806V22.2723Z" fill="#004289"/>
<path d="M137.885 20.9966H136.131V16.5353H134.157V33.3822H136.131V23.0227H137.885V33.8324H139.93V16.2427H137.885V20.9966Z" fill="#004289"/>
<path d="M131.263 23.3266C130.793 22.3098 130.6 21.1729 130.6 19.7772V19.1131H132.968V17.2183H126.088V19.1131H128.532V19.8147C128.532 21.1354 128.357 22.216 127.937 23.2178C127.448 24.3697 126.626 25.4053 125.316 26.5159L125.225 26.5984L126.52 27.8704L126.6 27.8104C127.251 27.3339 127.933 26.6435 128.501 25.9306C128.982 25.3302 129.388 24.7074 129.642 24.1596C129.903 24.6924 130.312 25.304 130.789 25.8743C131.342 26.5422 131.968 27.1763 132.566 27.5552L132.646 27.6078L133.737 26.317L133.649 26.2382C132.475 25.2252 131.748 24.3209 131.27 23.3229L131.263 23.3266Z" fill="#004289"/>
<path d="M73.123 24.7711H80.0516V26.7747H82.3131V24.7711H89.3515V22.9739H73.123V24.7711Z" fill="#004289"/>
<path d="M151.814 24.197H144.76V18.8803H150.132V17.0081H142.646V26.013H151.814V24.197Z" fill="#004289"/>
<path d="M147.825 28.2268H145.715V33.8324H155.583V31.9864H147.825V28.2268Z" fill="#004289"/>
<path d="M155.534 21.113V16.239H153.45V29.2174H155.534V22.9815H158V21.113H155.534Z" fill="#004289"/>
<path d="M44.2489 10.8135L38.8432 8.596L44.2489 6.37853L43.2867 4.08601L37.8848 6.30348L40.1236 0.949275L37.8053 0L35.5703 5.35421L33.3315 0L31.0131 0.949275L33.2519 6.30348L27.85 4.08601L26.8916 6.37853L32.2935 8.596L26.8916 10.8135L27.85 13.106L33.2519 10.8885L31.0131 16.2427L33.3315 17.192L35.5703 11.8415L37.8053 17.192L40.1236 16.239L37.8848 10.8885L43.2867 13.106L44.2489 10.8135Z" fill="#009FE3"/>
<path d="M9.27377 25.7504H12.8687V16.2427H0.576172V19.4469H9.27377V25.7504Z" fill="#009FE3"/>
<path d="M23.2972 25.7504H26.8922V16.2427H14.5996V19.4469H23.2972V25.7504Z" fill="#009FE3"/>
<path d="M0 30.6694H23.2971V35.5658H26.8921V27.4651H0V30.6694Z" fill="#009FE3"/>
<path d="M8.69727 50.5292H26.8918V37.2131H8.69727V50.5292ZM12.2922 40.4174H23.3006V47.325H12.2922V40.4174Z" fill="#009FE3"/>
</svg>
