<svg width="22" height="22" viewBox="0 0 22 22" fill="none" xmlns="http://www.w3.org/2000/svg">
<g opacity="0.7">
<path d="M10.9997 8.40531L4.09468 15.3103C3.91252 15.4924 3.6957 15.5812 3.44421 15.5765C3.19271 15.5718 2.97589 15.4783 2.79374 15.2962C2.61159 15.114 2.52051 14.8972 2.52051 14.6457C2.52051 14.3942 2.61159 14.1774 2.79374 13.9953L9.82563 6.97746C9.99133 6.81176 10.177 6.68895 10.3827 6.60903C10.5883 6.52913 10.794 6.48918 10.9997 6.48918C11.2053 6.48918 11.411 6.52913 11.6166 6.60903C11.8223 6.68895 12.008 6.81176 12.1737 6.97746L19.2056 14.0094C19.3877 14.1915 19.4765 14.406 19.4718 14.6528C19.4671 14.8996 19.3736 15.114 19.1915 15.2962C19.0093 15.4783 18.7925 15.5694 18.541 15.5694C18.2895 15.5694 18.0727 15.4783 17.8905 15.2962L10.9997 8.40531Z" fill="#1D1D1D"/>
</g>
</svg>
