<svg width="22" height="22" viewBox="0 0 22 22" fill="none" xmlns="http://www.w3.org/2000/svg">
<g opacity="0.7">
<path d="M11.0003 13.5947L17.9053 6.68972C18.0875 6.50756 18.3043 6.41883 18.5558 6.42352C18.8073 6.42822 19.0241 6.52165 19.2063 6.70381C19.3884 6.88597 19.4795 7.10279 19.4795 7.35428C19.4795 7.60576 19.3884 7.82259 19.2063 8.00474L12.1744 15.0225C12.0087 15.1882 11.823 15.3111 11.6173 15.391C11.4117 15.4709 11.206 15.5108 11.0003 15.5108C10.7947 15.5108 10.589 15.4709 10.3834 15.391C10.1777 15.3111 9.99203 15.1882 9.82633 15.0225L2.79444 7.99065C2.61229 7.80849 2.52355 7.59401 2.52824 7.34722C2.53295 7.10044 2.62638 6.88597 2.80854 6.70381C2.99069 6.52165 3.20751 6.43057 3.459 6.43057C3.71049 6.43057 3.92731 6.52165 4.10947 6.70381L11.0003 13.5947Z" fill="#1D1D1D"/>
</g>
</svg>
