<svg width="58" height="34" viewBox="0 0 58 34" fill="none" xmlns="http://www.w3.org/2000/svg">
<path d="M56.8107 9.70776L28.5007 0.047766C28.3107 -0.022234 28.1108 -0.0122319 27.9307 0.0577681C18.2308 3.72777 2.32075 9.57777 0.840749 9.66777C0.440749 9.66777 0.100749 9.94777 0.0207492 10.3378C-0.0692508 10.7278 0.140749 11.1278 0.510749 11.2878L7.87075 14.4778V18.0278C6.82075 18.2478 6.03075 19.1778 6.03075 20.2978C6.03075 20.8078 6.20075 21.2978 6.50075 21.6978L5.53075 27.4378C5.49075 27.6778 5.56075 27.9278 5.72075 28.1178C5.88075 28.3078 6.12075 28.4178 6.37075 28.4178H10.3307C10.5807 28.4178 10.8108 28.3178 10.9707 28.1278C11.1307 27.9478 11.2007 27.6978 11.1707 27.4578L10.3507 21.4778C10.5608 21.1278 10.6707 20.7178 10.6707 20.2978C10.6707 19.4578 10.2207 18.7278 9.56075 18.3178V15.2178L14.7807 17.4778V30.4578C14.7807 32.0478 16.0807 33.3578 17.6807 33.3578H41.5307C43.1307 33.3578 44.4307 32.0478 44.4307 30.4578V16.6878L56.8707 11.2878C57.1907 11.1478 57.4007 10.8278 57.3807 10.4778C57.3708 10.1278 57.1408 9.82776 56.8107 9.70776ZM7.37075 26.7278L8.24075 21.5678C8.29075 21.2678 8.18075 20.9678 7.95075 20.7778C7.80075 20.6578 7.72075 20.4778 7.72075 20.2978C7.72075 19.9478 8.00075 19.6678 8.35075 19.6678C8.70075 19.6678 8.98075 19.9478 8.98075 20.2978C8.98075 20.4878 8.90075 20.6278 8.82075 20.7078C8.66075 20.8878 8.59075 21.1378 8.62075 21.3778L9.36075 26.7278H7.37075ZM42.7407 30.4578C42.7407 31.1178 42.1907 31.6578 41.5307 31.6578H17.6807C17.0107 31.6578 16.4707 31.1178 16.4707 30.4578V18.2178L28.3507 23.3678C28.4608 23.4178 28.5807 23.4378 28.6908 23.4378C28.8108 23.4378 28.9207 23.4178 29.0308 23.3678L42.7407 17.4178V30.4578ZM28.6908 21.6678L11.8507 14.3678L26.0707 12.4878C26.6908 12.8678 27.6208 13.1078 28.6908 13.1078C30.6507 13.1078 32.1307 12.3278 32.1307 11.2878C32.1307 10.2478 30.6507 9.47777 28.6908 9.47777C27.0007 9.47777 25.6707 10.0578 25.3307 10.8778L8.83075 13.0578L3.41075 10.7078C9.53075 8.79776 24.2307 3.26777 28.2407 1.74777L54.2007 10.6078L28.6908 21.6678ZM26.1007 11.2878C26.1007 10.8978 27.1108 10.3178 28.6908 10.3178C30.2708 10.3178 31.2808 10.8978 31.2808 11.2878C31.2808 11.6778 30.2708 12.2578 28.6908 12.2578C27.1108 12.2578 26.1007 11.6878 26.1007 11.2878Z" fill="#272626"/>
<path d="M8.24109 21.5677C8.29109 21.2677 8.18109 20.9677 7.95109 20.7777C7.80109 20.6577 7.72109 20.4777 7.72109 20.2977C7.72109 19.9477 8.00109 19.6677 8.35109 19.6677C8.70109 19.6677 8.98109 19.9477 8.98109 20.2977C8.98109 20.4877 8.90109 20.6277 8.82109 20.7077C8.66109 20.8877 8.59109 21.1377 8.62109 21.3777L9.36109 26.7277H7.37109L8.24109 21.5677Z" fill="#AAD4C8"/>
<path d="M31.2806 11.2879C31.2806 11.6879 30.2706 12.2579 28.6906 12.2579C27.1106 12.2579 26.1006 11.6879 26.1006 11.2879C26.1006 10.8879 27.1106 10.3179 28.6906 10.3179C30.2706 10.3179 31.2806 10.8979 31.2806 11.2879Z" fill="#AAD4C8"/>
<path d="M42.7407 17.4177V30.4577C42.7407 31.1177 42.1907 31.6577 41.5307 31.6577H17.6807C17.0107 31.6577 16.4707 31.1177 16.4707 30.4577V18.2177L28.3507 23.3677C28.4607 23.4177 28.5807 23.4377 28.6907 23.4377C28.8107 23.4377 28.9207 23.4177 29.0307 23.3677L42.7407 17.4177Z" fill="#AAD4C8"/>
<path d="M54.2011 10.6078L28.6911 21.6678L11.8511 14.3678L26.0711 12.4878C26.6911 12.8678 27.6211 13.1078 28.6911 13.1078C30.6511 13.1078 32.1311 12.3278 32.1311 11.2878C32.1311 10.2478 30.6511 9.4778 28.6911 9.4778C27.0011 9.4778 25.6711 10.0578 25.3311 10.8778L8.83113 13.0578L3.41113 10.7078C9.53113 8.79779 24.2311 3.2678 28.2411 1.7478L54.2011 10.6078Z" fill="#61BDAB"/>
</svg>
