<svg width="34" height="40" viewBox="0 0 34 40" fill="none" xmlns="http://www.w3.org/2000/svg">
<path d="M13.93 0H2.5C1.12 0 0 1.35 0 3.01C0 4.67 1.12 6.01 2.5 6.01H3.00999V33.81C3.00999 36.68 5.35 39.02 8.22 39.02C11.09 39.02 13.42 36.68 13.42 33.81V6.01H13.93C15.31 6.01 16.43 4.66 16.43 3.01C16.43 1.36 15.31 0 13.93 0ZM11.73 33.81C11.73 35.75 10.15 37.32 8.22 37.32C6.29 37.32 4.7 35.75 4.7 33.81V6.01H11.73V33.81ZM13.93 4.32H2.5C2.12 4.32 1.68999 3.78 1.68999 3.01C1.68999 2.24 2.12 1.7 2.5 1.7H13.93C14.31 1.7 14.74 2.23 14.74 3.01C14.74 3.79 14.31 4.32 13.93 4.32Z" fill="#272626"/>
<path d="M11.7302 6.01001H4.7002V24.45H11.7302V6.01001Z" fill="#AAD4C8"/>
<path d="M14.7404 3.00995C14.7404 3.77995 14.3104 4.31995 13.9304 4.31995H2.50043C2.12043 4.31995 1.69043 3.77995 1.69043 3.00995C1.69043 2.23995 2.12043 1.69995 2.50043 1.69995H13.9304C14.3104 1.69995 14.7404 2.22995 14.7404 3.00995Z" fill="#AAD4C8"/>
<path d="M4.7002 26.03V33.81C4.7002 35.75 6.2802 37.32 8.2202 37.32C10.1602 37.32 11.7302 35.75 11.7302 33.81V26.03H4.7002ZM7.8102 36.25C7.4702 36.25 7.2002 35.98 7.2002 35.65C7.2002 35.32 7.47019 35.04 7.80019 35.04C7.82019 35.04 8.0402 35.03 8.3502 34.96C8.9902 34.81 9.8002 34.43 10.0702 33.43C10.1102 33.28 10.1402 33.12 10.1502 32.96C10.1702 32.64 10.4502 32.4 10.7602 32.4H10.8002C11.1402 32.43 11.3902 32.72 11.3602 33.06C11.1702 35.56 8.9602 36.24 7.8102 36.25Z" fill="#54B9EA"/>
<path d="M31.4603 0H20.0303C18.6503 0 17.5303 1.35 17.5303 3.01C17.5303 4.67 18.6503 6.01 20.0303 6.01H20.5403V33.81C20.5403 36.68 22.8703 39.01 25.7403 39.01C28.6103 39.01 30.9503 36.68 30.9503 33.81V6.01H31.4603C32.8403 6.01 33.9603 4.66 33.9603 3.01C33.9603 1.36 32.8403 0 31.4603 0ZM29.2603 33.81C29.2603 35.75 27.6803 37.32 25.7403 37.32C23.8003 37.32 22.2303 35.75 22.2303 33.81V6.01H29.2603V33.81ZM31.4603 4.32H20.0303C19.6503 4.32 19.2203 3.78 19.2203 3.01C19.2203 2.24 19.6503 1.7 20.0303 1.7H31.4603C31.8403 1.7 32.2703 2.23 32.2703 3.01C32.2703 3.79 31.8403 4.32 31.4603 4.32Z" fill="#272626"/>
<path d="M29.2605 6.01001H22.2305V16.33H29.2605V6.01001Z" fill="#AAD4C8"/>
<path d="M32.2697 3.00995C32.2697 3.77995 31.8397 4.31995 31.4597 4.31995H20.0297C19.6497 4.31995 19.2197 3.77995 19.2197 3.00995C19.2197 2.23995 19.6497 1.69995 20.0297 1.69995H31.4597C31.8397 1.69995 32.2697 2.22995 32.2697 3.00995Z" fill="#AAD4C8"/>
<path d="M22.2305 17.9102V33.8102C22.2305 35.7502 23.8105 37.3202 25.7405 37.3202C27.6705 37.3202 29.2605 35.7502 29.2605 33.8102V17.9102H22.2305ZM25.3405 36.2502C25.0005 36.2502 24.7305 35.9802 24.7305 35.6502C24.7305 35.3202 24.9905 35.0402 25.3305 35.0402C25.3505 35.0402 25.5705 35.0302 25.8705 34.9602C26.5105 34.8102 27.3305 34.4302 27.6005 33.4302C27.6405 33.2802 27.6605 33.1202 27.6805 32.9602C27.7005 32.6402 27.9805 32.4002 28.2905 32.4002H28.3305C28.6605 32.4302 28.9205 32.7202 28.8905 33.0602C28.6905 35.5602 26.4805 36.2402 25.3405 36.2502Z" fill="#54B9EA"/>
<path d="M11.3602 33.0599C11.1702 35.5599 8.9602 36.2399 7.8102 36.2499C7.4702 36.2499 7.2002 35.9799 7.2002 35.6499C7.2002 35.3199 7.47019 35.0399 7.80019 35.0399C7.82019 35.0399 8.0402 35.0299 8.3502 34.9599C8.9902 34.8099 9.8002 34.4299 10.0702 33.4299C10.1102 33.2799 10.1402 33.1199 10.1502 32.9599C10.1702 32.6399 10.4502 32.3999 10.7602 32.3999H10.8002C11.1402 32.4299 11.3902 32.7199 11.3602 33.0599Z" fill="#272626"/>
<path d="M28.8905 33.0599C28.6905 35.5599 26.4805 36.2399 25.3405 36.2499C25.0005 36.2499 24.7305 35.9799 24.7305 35.6499C24.7305 35.3199 24.9905 35.0399 25.3305 35.0399C25.3505 35.0399 25.5705 35.0299 25.8705 34.9599C26.5105 34.8099 27.3305 34.4299 27.6005 33.4299C27.6405 33.2799 27.6605 33.1199 27.6805 32.9599C27.7005 32.6399 27.9805 32.3999 28.2905 32.3999H28.3305C28.6605 32.4299 28.9205 32.7199 28.8905 33.0599Z" fill="#272626"/>
<path d="M11.9898 26.03H4.4398C3.4198 26.03 3.4198 24.45 4.4398 24.45H11.9898C13.0098 24.45 13.0098 26.03 11.9898 26.03Z" fill="#272626"/>
<path d="M29.8697 17.9101H21.6097C20.5897 17.9101 20.5897 16.3301 21.6097 16.3301H29.8697C30.8897 16.3301 30.8897 17.9101 29.8697 17.9101Z" fill="#272626"/>
</svg>
