<svg width="16" height="16" viewBox="0 0 16 16" fill="none" xmlns="http://www.w3.org/2000/svg">
<path opacity="0.8" d="M7.50033 8.4998H4.16699C4.02533 8.4998 3.90658 8.45187 3.81074 8.356C3.71491 8.26013 3.66699 8.14133 3.66699 7.9996C3.66699 7.85787 3.71491 7.73914 3.81074 7.64342C3.90658 7.5477 4.02533 7.49984 4.16699 7.49984H7.50033V4.1665C7.50033 4.02484 7.54826 3.90609 7.64413 3.81025C7.74 3.71442 7.8588 3.6665 8.00053 3.6665C8.14226 3.6665 8.26099 3.71442 8.35671 3.81025C8.45243 3.90609 8.50029 4.02484 8.50029 4.1665V7.49984H11.8336C11.9753 7.49984 12.094 7.54777 12.1899 7.64364C12.2857 7.73952 12.3336 7.85832 12.3336 8.00004C12.3336 8.14177 12.2857 8.2605 12.1899 8.35622C12.094 8.45194 11.9753 8.4998 11.8336 8.4998H8.50029V11.8331C8.50029 11.9748 8.45236 12.0936 8.35649 12.1894C8.26061 12.2852 8.14181 12.3331 8.00009 12.3331C7.85836 12.3331 7.73963 12.2852 7.64391 12.1894C7.54819 12.0936 7.50033 11.9748 7.50033 11.8331V8.4998Z" fill="white"/>
</svg>
