<svg width="24" height="24" viewBox="0 0 24 24" fill="none" xmlns="http://www.w3.org/2000/svg">
<g opacity="0.6">
<path d="M12.0005 10.4385L7.92738 14.5116C7.78893 14.65 7.61489 14.7209 7.40528 14.7241C7.19568 14.7273 7.01844 14.6564 6.87358 14.5116C6.72869 14.3667 6.65625 14.1911 6.65625 13.9847C6.65625 13.7782 6.72869 13.6026 6.87358 13.4577L11.3678 8.96351C11.4614 8.86993 11.5601 8.80391 11.664 8.76544C11.7678 8.72699 11.88 8.70776 12.0005 8.70776C12.121 8.70776 12.2332 8.72699 12.337 8.76544C12.4409 8.80391 12.5396 8.86993 12.6332 8.96351L17.1274 13.4577C17.2658 13.5962 17.3367 13.7702 17.3399 13.9798C17.3431 14.1895 17.2723 14.3667 17.1274 14.5116C16.9825 14.6564 16.8069 14.7289 16.6005 14.7289C16.3941 14.7289 16.2184 14.6564 16.0736 14.5116L12.0005 10.4385Z" fill="white"/>
</g>
</svg>
