<svg width="34" height="30" viewBox="0 0 34 30" fill="none" xmlns="http://www.w3.org/2000/svg">
<path opacity="0.8" d="M4.92661 29.7981C4.14609 29.7981 3.52064 29.4949 3.05028 28.8883C2.57992 28.2818 2.4299 27.5941 2.60022 26.8252C2.95097 25.3813 3.18919 23.9324 3.31489 22.4787C3.44058 21.0249 3.52168 19.5614 3.55819 18.0881C2.44715 17.7203 1.57636 17.0693 0.945835 16.135C0.315278 15.2007 0 14.1594 0 13.0109V12.2654C0 11.7685 0.147492 11.32 0.442475 10.9199C0.737459 10.5197 1.12925 10.2248 1.61785 10.035C4.22313 9.05869 6.67075 7.83144 8.96072 6.35327C11.2507 4.87508 13.4388 3.24282 15.5251 1.45648C15.744 1.27647 15.9752 1.14392 16.2184 1.05881C16.4617 0.973706 16.7223 0.931152 17 0.931152C17.2777 0.931152 17.5383 0.973706 17.7816 1.05881C18.0248 1.14392 18.256 1.27647 18.4749 1.45648C20.5612 3.24282 22.7493 4.87508 25.0393 6.35327C27.3292 7.83144 29.7769 9.05869 32.3821 10.035C32.8707 10.2248 33.2625 10.5197 33.5575 10.9199C33.8525 11.32 34 11.7685 34 12.2654V13.0109C34 14.1594 33.6847 15.2007 33.0542 16.135C32.4237 17.0693 31.5529 17.7203 30.4419 18.0881C30.4784 19.5614 30.5595 21.0249 30.6851 22.4787C30.8108 23.9324 31.0491 25.3813 31.3998 26.8252C31.5701 27.5941 31.4201 28.2818 30.9498 28.8883C30.4794 29.4948 29.854 29.7981 29.0735 29.7981L4.92661 29.7981ZM5.65034 10.7217H28.3497C26.2655 9.74148 24.2842 8.6238 22.4057 7.36867C20.5273 6.11355 18.7254 4.74053 17 3.24962C15.2747 4.74053 13.4728 6.11356 11.5943 7.36871C9.71591 8.62384 7.73457 9.74148 5.65034 10.7217ZM20.9535 16.0631C21.7645 16.0631 22.4285 15.7598 22.9455 15.1533C23.4625 14.5467 23.721 13.8326 23.721 13.0108H18.186C18.186 13.8326 18.4446 14.5467 18.9616 15.1533C19.4786 15.7599 20.1425 16.0632 20.9535 16.0632V16.0631ZM13.0465 16.0631C13.8575 16.0631 14.5215 15.7598 15.0385 15.1533C15.5555 14.5467 15.814 13.8326 15.814 13.0108H10.2791C10.2791 13.8326 10.5376 14.5467 11.0546 15.1533C11.5716 15.7599 12.2355 16.0632 13.0465 16.0632V16.0631ZM5.13955 16.0631C5.95054 16.0631 6.61453 15.7598 7.13152 15.1533C7.64853 14.5467 7.90703 13.8326 7.90703 13.0108H2.37206C2.37206 13.8326 2.63057 14.5467 3.14758 15.1533C3.66456 15.7599 4.32855 16.0632 5.13955 16.0632V16.0631ZM4.85972 27.509H9.95676C10.2142 25.885 10.4114 24.2713 10.5482 22.6679C10.6851 21.0645 10.788 19.446 10.8569 17.8122C10.492 17.6557 10.162 17.4561 9.86702 17.2135C9.57204 16.9709 9.31404 16.6891 9.09304 16.3683C8.7342 16.8711 8.27955 17.2913 7.72909 17.6288C7.17863 17.9663 6.579 18.184 5.93021 18.2818C5.87749 19.849 5.78018 21.3996 5.63828 22.9335C5.49635 24.4675 5.23683 25.9926 4.85972 27.509ZM12.3531 27.509H21.6469C21.4057 25.9828 21.2207 24.4592 21.0919 22.9379C20.9632 21.4167 20.8644 19.8803 20.7954 18.3288C20.0149 18.3268 19.289 18.1458 18.6179 17.7858C17.9468 17.4258 17.4075 16.9416 17 16.3331C16.5925 16.9416 16.0532 17.4258 15.3821 17.7858C14.7111 18.1458 13.9852 18.3268 13.2046 18.3288C13.1357 19.8803 13.0369 21.4167 12.9081 22.9379C12.7794 24.4592 12.5944 25.9828 12.3531 27.509ZM24.0433 27.509H29.1404C28.7632 25.9926 28.5037 24.4675 28.3618 22.9335C28.2199 21.3996 28.1226 19.849 28.0699 18.2818C27.4211 18.184 26.8164 17.9678 26.2558 17.6332C25.6952 17.2986 25.2456 16.8672 24.907 16.3389C24.6962 16.6696 24.4432 16.9562 24.1482 17.1988C23.8533 17.4414 23.5182 17.6459 23.1431 17.8122C23.2121 19.446 23.319 21.0645 23.464 22.6679C23.6089 24.2713 23.802 25.885 24.0433 27.509ZM28.8605 16.0631C29.6715 16.0631 30.3355 15.7598 30.8525 15.1533C31.3695 14.5467 31.628 13.8326 31.628 13.0108H26.093C26.093 13.8326 26.3515 14.5467 26.8686 15.1533C27.3855 15.7599 28.0495 16.0632 28.8605 16.0632V16.0631Z" fill="white"/>
</svg>
