<svg width="38" height="38" viewBox="0 0 38 38" fill="none" xmlns="http://www.w3.org/2000/svg">
<g opacity="0.8">
<path d="M13.3674 31.5145C10.9741 30.6436 8.88889 29.3293 7.11171 27.5714C5.33452 25.8135 4.3292 23.6973 4.09573 21.2229C4.06528 20.8352 4.17642 20.4997 4.42914 20.2165C4.68187 19.9334 5.00209 19.7918 5.38979 19.7918H7.12536V8.21515C7.12536 7.85993 7.24463 7.54986 7.48316 7.28494C7.72166 7.02005 8.01853 6.86629 8.37378 6.82367L32.9945 4.08633C33.2929 4.04371 33.5421 4.11831 33.742 4.31013C33.942 4.50195 34.042 4.74707 34.042 5.04547C34.042 5.27485 33.9567 5.47884 33.7862 5.65747C33.6157 5.8361 33.4157 5.9386 33.1864 5.96499L16.5644 7.81322V10.8246H33.098C33.37 10.8246 33.5953 10.914 33.774 11.0926C33.9526 11.2712 34.042 11.4965 34.042 11.7685C34.042 12.0405 33.9526 12.2658 33.774 12.4445C33.5953 12.6231 33.37 12.7124 33.098 12.7124H16.5644V19.7918H32.6109C32.9986 19.7918 33.3213 19.9334 33.5791 20.2165C33.8369 20.4997 33.9506 20.8352 33.9201 21.2229C33.6867 23.7075 32.6788 25.8312 30.8965 27.5942C29.1143 29.3572 27.0164 30.6639 24.6028 31.5145V32.6106C24.6028 33.0186 24.4663 33.3591 24.1933 33.6321C23.9203 33.9052 23.5798 34.0417 23.1718 34.0417H14.7984C14.3904 34.0417 14.0499 33.9052 13.7769 33.6321C13.5039 33.3591 13.3674 33.0186 13.3674 32.6106V31.5145ZM12.7888 10.8246H14.6766V8.02938L12.7888 8.2334V10.8246ZM9.01317 10.8246H10.901V8.4496L9.01317 8.63837V10.8246ZM12.7888 19.7918H14.6766V12.7124H12.7888V19.7918ZM9.01317 19.7918H10.901V12.7124H9.01317V19.7918ZM15.7423 31.6667H22.2279V29.8946L23.6589 29.3466C25.3905 28.7538 26.9271 27.8434 28.2689 26.6153C29.6107 25.3872 30.579 23.9043 31.1737 22.1667H6.8269C7.41152 23.9043 8.37473 25.3913 9.71653 26.6275C11.0583 27.8637 12.5899 28.7701 14.3112 29.3466L15.7423 29.8946V31.6667Z" fill="white"/>
</g>
</svg>
