<svg width="32" height="29" viewBox="0 0 32 29" fill="none" xmlns="http://www.w3.org/2000/svg">
<path opacity="0.8" d="M3.97081 26.0718V15.0031L1.93507 16.4685C1.65337 16.6589 1.35522 16.7341 1.04061 16.6941C0.726009 16.6541 0.46591 16.5037 0.260318 16.2428C0.0546712 15.9819 -0.0291323 15.7058 0.00890681 15.4145C0.0469459 15.1232 0.198594 14.8823 0.463852 14.6918L3.97081 12.1953V9.04751C3.97081 8.73143 4.08597 8.46674 4.31629 8.25344C4.54659 8.04017 4.8324 7.93354 5.17374 7.93354C5.51507 7.93354 5.80088 8.04017 6.03118 8.25344C6.26147 8.46674 6.37662 8.73143 6.37662 9.04751V10.4872L14.2357 4.93715C14.7724 4.56391 15.3631 4.37729 16.0077 4.37729C16.6523 4.37729 17.2379 4.56391 17.7643 4.93715L31.5361 14.6918C31.8014 14.8823 31.9531 15.1232 31.9911 15.4145C32.0291 15.7058 31.9453 15.9819 31.7397 16.2428C31.5341 16.4885 31.274 16.6313 30.9594 16.6713C30.6448 16.7113 30.3548 16.6361 30.0896 16.4456L28.0292 15.0031V26.0718C28.0292 26.8125 27.7459 27.4452 27.1794 27.9699C26.6129 28.4945 25.9297 28.7568 25.1298 28.7568H6.87018C6.07029 28.7568 5.38709 28.4945 4.8206 27.9699C4.25407 27.4452 3.97081 26.8125 3.97081 26.0718ZM6.87018 26.5288H14.0876V21.7871C14.0876 21.2901 14.2722 20.8707 14.6413 20.5289C15.0104 20.187 15.4633 20.0161 16 20.0161C16.5367 20.0161 16.9896 20.187 17.3587 20.5289C17.7278 20.8707 17.9124 21.2901 17.9124 21.7871V26.5288H25.1298C25.2738 26.5288 25.392 26.486 25.4846 26.4003C25.5771 26.3146 25.6234 26.2051 25.6234 26.0718V13.3093L16.293 6.72811C16.2108 6.66144 16.1131 6.62811 16 6.62811C15.8869 6.62811 15.7892 6.66144 15.707 6.72811L6.37662 13.3093V26.0718C6.37662 26.2051 6.42289 26.3146 6.51543 26.4003C6.60798 26.486 6.72623 26.5288 6.87018 26.5288ZM6.87018 26.5288H25.6234H6.37662H6.87018ZM5.45438 6.30538C5.02464 6.30538 4.68639 6.14161 4.43963 5.81406C4.1929 5.48655 4.16514 5.14665 4.35635 4.79438C4.67713 4.07646 5.18194 3.50612 5.87079 3.08337C6.55964 2.66062 7.32457 2.44924 8.1656 2.44924C8.53161 2.44924 8.87398 2.35736 9.1927 2.1736C9.51145 1.98981 9.72736 1.74082 9.84043 1.42662C9.93298 1.24189 10.0697 1.09478 10.2507 0.985288C10.4316 0.875793 10.6383 0.821045 10.8706 0.821045C11.3106 0.821045 11.6525 0.987194 11.8961 1.31949C12.1398 1.65179 12.1661 1.99884 11.9748 2.36064C11.6438 3.06903 11.1364 3.63222 10.4527 4.05022C9.76897 4.4682 9.00661 4.67718 8.1656 4.67718C7.79957 4.67718 7.45719 4.75812 7.13847 4.92C6.81975 5.08185 6.60384 5.3275 6.49073 5.65695C6.38792 5.85119 6.25016 6.00781 6.07745 6.12684C5.90471 6.24587 5.69702 6.30538 5.45438 6.30538Z" fill="white"/>
</svg>
