<svg width="27" height="30" viewBox="0 0 27 30" fill="none" xmlns="http://www.w3.org/2000/svg">
<path opacity="0.8" d="M6.09225 26.4872V28.0472C6.09225 28.5336 5.90697 28.947 5.53641 29.2875C5.16582 29.6279 4.71583 29.7982 4.18645 29.7982C3.65704 29.7982 3.20773 29.6279 2.83852 29.2875C2.46928 28.947 2.28466 28.5336 2.28466 28.0472V25.2902C1.72159 24.8976 1.20005 24.3421 0.720047 23.6236C0.240015 22.9052 0 22.0982 0 21.2025V5.79406C0 3.7903 1.08278 2.32369 3.24834 1.39423C5.41386 0.464744 8.83089 0 13.4994 0C18.3367 0 21.7961 0.446629 23.8777 1.33989C25.9592 2.23314 27 3.71787 27 5.79406V21.2025C27 22.0982 26.76 22.9052 26.2799 23.6236C25.7999 24.3421 25.2784 24.8976 24.7153 25.2902V28.0472C24.7153 28.5336 24.53 28.947 24.1595 29.2875C23.7889 29.6279 23.3389 29.7982 22.8095 29.7982C22.2801 29.7982 21.8308 29.6279 21.4616 29.2875C21.0923 28.947 20.9077 28.5336 20.9077 28.0472V26.4872H6.09225ZM13.5554 4.58434H23.9124H3.19839H13.5554ZM20.7 15.7268H2.69996H24.3H20.7ZM2.69996 13.2437H24.3V7.06748H2.69996V13.2437ZM7.20407 22.0303C7.85904 22.0303 8.4144 21.8194 8.87016 21.3977C9.32592 20.9761 9.5538 20.4641 9.5538 19.8617C9.5538 19.2593 9.32455 18.7486 8.86606 18.3294C8.4076 17.9102 7.85088 17.7007 7.19588 17.7007C6.54092 17.7007 5.98556 17.9115 5.5298 18.3332C5.07404 18.7548 4.84616 19.2668 4.84616 19.8692C4.84616 20.4716 5.0754 20.9824 5.53389 21.4015C5.99235 21.8207 6.54908 22.0303 7.20407 22.0303ZM19.8041 22.0303C20.4591 22.0303 21.0144 21.8194 21.4702 21.3977C21.926 20.9761 22.1538 20.4641 22.1538 19.8617C22.1538 19.2593 21.9246 18.7486 21.4661 18.3294C21.0076 17.9102 20.4509 17.7007 19.7959 17.7007C19.141 17.7007 18.5856 17.9115 18.1298 18.3332C17.6741 18.7548 17.4462 19.2668 17.4462 19.8692C17.4462 20.4716 17.6754 20.9824 18.1339 21.4015C18.5924 21.8207 19.1491 22.0303 19.8041 22.0303ZM3.19839 4.58434H23.9124C23.5316 3.92425 22.567 3.40903 21.0185 3.03868C19.47 2.66832 16.9823 2.48315 13.5554 2.48315C10.1838 2.48315 7.72381 2.67682 6.17533 3.06417C4.62687 3.45149 3.63456 3.95822 3.19839 4.58434ZM6.29998 24.0041H20.7C21.69 24.0041 22.5375 23.6799 23.2425 23.0315C23.9475 22.3831 24.3 21.6037 24.3 20.6932V15.7268H2.69996V20.6932C2.69996 21.6037 3.05246 22.3831 3.75747 23.0315C4.46247 23.6799 5.30997 24.0041 6.29998 24.0041Z" fill="white"/>
</svg>
