<svg width="24" height="24" viewBox="0 0 24 24" fill="none" xmlns="http://www.w3.org/2000/svg">
<g opacity="0.7">
<path d="M12 14.8309L19.5327 7.29816C19.7314 7.09944 19.968 7.00264 20.2423 7.00776C20.5167 7.01289 20.7532 7.11482 20.9519 7.31354C21.1506 7.51225 21.25 7.74879 21.25 8.02314C21.25 8.29749 21.1506 8.53402 20.9519 8.73274L13.2808 16.3885C13.1 16.5693 12.8974 16.7033 12.6731 16.7904C12.4487 16.8776 12.2244 16.9212 12 16.9212C11.7757 16.9212 11.5513 16.8776 11.3269 16.7904C11.1026 16.7033 10.9 16.5693 10.7193 16.3885L3.04812 8.71736C2.84941 8.51864 2.75261 8.28467 2.75772 8.01543C2.76286 7.74622 2.86478 7.51225 3.0635 7.31353C3.26222 7.11482 3.49875 7.01546 3.7731 7.01546C4.04745 7.01546 4.28398 7.11482 4.4827 7.31353L12 14.8309Z" fill="#1D1D1D"/>
</g>
</svg>
