<svg width="38" height="48" viewBox="0 0 38 48" fill="none" xmlns="http://www.w3.org/2000/svg">
<path d="M33.4301 7.31715C30.3001 3.50715 25.6801 1.32715 20.7601 1.32715C15.8401 1.32715 11.2201 3.50715 8.09012 7.31715C5.69012 10.2371 4.37012 13.9271 4.37012 17.7171C4.37012 26.7471 11.7201 34.1071 20.7601 34.1071C29.8001 34.1071 37.1501 26.7471 37.1501 17.7171C37.1501 13.9271 35.8301 10.2371 33.4301 7.31715ZM32.1201 8.38715C32.1801 8.46715 32.2501 8.54715 32.3101 8.62715C30.3601 9.82715 28.4401 10.6071 26.5801 11.0771C25.1401 7.48715 23.1801 4.60715 22.0201 3.07715C25.9601 3.41715 29.5801 5.30715 32.1201 8.38715ZM27.4501 21.2471C27.3601 22.0971 27.2101 22.9371 26.9901 23.7471C22.9501 24.7171 18.8101 24.4571 14.6201 22.9571C14.5101 22.9171 14.4101 22.8772 14.3101 22.8372C14.2001 22.3172 14.1201 21.7871 14.0701 21.2471C13.7401 17.8571 14.5201 14.5071 15.6601 11.6071C17.4901 12.1371 19.5801 12.5171 21.8601 12.5171C23.1901 12.5171 24.5901 12.3871 26.0401 12.0771C27.0801 14.8671 27.7601 18.0371 27.4501 21.2471ZM20.9101 3.01715C21.8601 4.23715 24.1101 7.32715 25.7201 11.2771C22.0801 12.0171 18.7201 11.6071 15.9901 10.8171C17.5801 7.08715 19.6901 4.19715 20.6101 3.01715H20.9101ZM19.4901 3.07715C18.3901 4.52715 16.5601 7.21715 15.1501 10.5671C12.6101 9.73715 10.7001 8.63715 9.72012 8.01715C12.2401 5.14715 15.7301 3.39715 19.4901 3.07715ZM6.06012 17.7171C6.06012 14.4371 7.17012 11.2371 9.18012 8.66715C10.1701 9.30715 12.1601 10.4671 14.8301 11.3471C13.6601 14.3271 12.8801 17.7771 13.2301 21.3271C13.2701 21.7171 13.3201 22.0971 13.3801 22.4671C9.75012 20.9371 7.14012 18.8671 6.07012 17.9171C6.06012 17.8471 6.06012 17.7871 6.06012 17.7171ZM6.13012 19.0871C7.54012 20.2471 10.1301 22.0971 13.5801 23.4671C14.3601 26.7671 16.1601 29.7271 18.9601 32.2971C12.1501 31.4671 6.77012 25.9571 6.13012 19.0871ZM20.7601 32.4171C20.6301 32.4171 20.5001 32.4072 20.3701 32.4072C17.3801 29.9172 15.4301 27.0471 14.5501 23.8171C16.6701 24.5671 19.2401 25.1371 22.1201 25.1371C23.5801 25.1371 25.1201 24.9871 26.7201 24.6371C25.7401 27.5371 23.8801 30.1271 21.1501 32.4072C21.0201 32.4072 20.8901 32.4171 20.7601 32.4171ZM22.5501 32.2971C25.0901 29.9771 26.8001 27.3372 27.6801 24.4072C30.0301 23.7971 32.5101 22.7471 35.0601 21.0971C33.6601 27.0071 28.6901 31.5471 22.5501 32.2971ZM27.9301 23.4971C28.0901 22.7871 28.2201 22.0671 28.2901 21.3271C28.6201 17.9871 27.9401 14.7371 26.8901 11.8771C28.8101 11.3771 30.8001 10.5571 32.8201 9.31715C34.5301 11.7671 35.4601 14.7071 35.4601 17.7171C35.4601 18.4671 35.4001 19.2071 35.2901 19.9271C32.8801 21.5871 30.4201 22.7771 27.9301 23.4971Z" fill="#272626"/>
<path d="M35.0608 21.0972C33.6608 27.0072 28.6908 31.5472 22.5508 32.2972C25.0908 29.9772 26.8008 27.3372 27.6808 24.4072C30.0308 23.7972 32.5108 22.7472 35.0608 21.0972Z" fill="#AAD4C8"/>
<path d="M26.7208 24.6374C25.7408 27.5374 23.8808 30.1274 21.1508 32.4074C21.0208 32.4074 20.8908 32.4174 20.7608 32.4174C20.6308 32.4174 20.5008 32.4074 20.3708 32.4074C17.3808 29.9174 15.4308 27.0474 14.5508 23.8174C16.6708 24.5674 19.2408 25.1374 22.1208 25.1374C23.5808 25.1374 25.1208 24.9874 26.7208 24.6374Z" fill="#54B9EA"/>
<path d="M18.9609 32.2974C12.1509 31.4674 6.77086 25.9574 6.13086 19.0874C7.54086 20.2474 10.1309 22.0974 13.5809 23.4674C14.3609 26.7674 16.1609 29.7274 18.9609 32.2974Z" fill="#AAD4C8"/>
<path d="M13.2305 21.3272C13.2705 21.7172 13.3205 22.0972 13.3805 22.4672C9.75055 20.9372 7.14055 18.8672 6.07055 17.9172C6.06055 17.8472 6.06055 17.7872 6.06055 17.7172C6.06055 14.4372 7.17055 11.2372 9.18055 8.66724C10.1705 9.30724 12.1605 10.4672 14.8305 11.3472C13.6605 14.3272 12.8805 17.7772 13.2305 21.3272Z" fill="#61BDAB"/>
<path d="M27.4504 21.2472C27.3604 22.0972 27.2104 22.9372 26.9904 23.7472C22.9504 24.7172 18.8104 24.4572 14.6204 22.9572C14.5104 22.9172 14.4104 22.8772 14.3104 22.8372C14.2004 22.3172 14.1204 21.7872 14.0704 21.2472C13.7404 17.8572 14.5204 14.5072 15.6604 11.6072C17.4904 12.1372 19.5804 12.5172 21.8604 12.5172C23.1904 12.5172 24.5904 12.3872 26.0404 12.0772C27.0804 14.8672 27.7604 18.0372 27.4504 21.2472Z" fill="#AAD4C8"/>
<path d="M35.4606 17.7174C35.4606 18.4674 35.4006 19.2074 35.2906 19.9274C32.8806 21.5874 30.4206 22.7774 27.9306 23.4974C28.0906 22.7874 28.2206 22.0674 28.2906 21.3274C28.6206 17.9874 27.9406 14.7374 26.8906 11.8774C28.8106 11.3774 30.8006 10.5574 32.8206 9.31738C34.5306 11.7674 35.4606 14.7074 35.4606 17.7174Z" fill="#61BDAB"/>
<path d="M32.3105 8.62715C30.3605 9.82715 28.4405 10.6071 26.5805 11.0771C25.1405 7.48715 23.1805 4.60715 22.0205 3.07715C25.9605 3.41715 29.5805 5.30715 32.1205 8.38715C32.1805 8.46715 32.2505 8.54715 32.3105 8.62715Z" fill="#AAD4C8"/>
<path d="M25.7202 11.2773C22.0802 12.0173 18.7202 11.6073 15.9902 10.8173C17.5802 7.08733 19.6902 4.19733 20.6102 3.01733H20.9102C21.8602 4.23733 24.1102 7.32734 25.7202 11.2773Z" fill="#54B9EA"/>
<path d="M19.4907 3.07715C18.3907 4.52715 16.5607 7.21715 15.1507 10.5671C12.6107 9.73715 10.7007 8.63715 9.7207 8.01715C12.2407 5.14715 15.7307 3.39715 19.4907 3.07715Z" fill="#AAD4C8"/>
<path d="M28.8004 40.0773H23.9304V39.2673C23.9304 38.8073 23.8304 38.3673 23.6504 37.9673C25.5104 37.7073 27.4404 37.2373 29.4204 36.5473C29.9704 36.3573 30.2604 35.7473 30.0704 35.1973C29.8804 34.6473 29.2804 34.3573 28.7204 34.5473C25.2004 35.7773 21.8904 36.2773 18.8904 36.0273C9.82038 35.2873 2.14038 26.6373 2.11038 17.1273C2.11038 15.5773 2.28038 14.0873 2.61038 12.6973C3.17038 10.3973 4.24038 8.21726 5.71038 6.40726C7.29038 4.46726 9.27037 2.90726 11.2704 2.02726C11.8104 1.78726 12.0504 1.16726 11.8204 0.627257C11.5804 0.0972573 10.9604 -0.142744 10.4204 0.0872563C8.08038 1.11726 5.89038 2.84726 4.07038 5.07726C2.40038 7.12726 1.19038 9.59726 0.560376 12.1973C0.180376 13.7473 -0.00962484 15.4073 0.000375156 17.1373C0.0303752 27.3873 8.11038 36.7473 17.8404 38.0373C17.6804 38.4173 17.5904 38.8273 17.5904 39.2673V40.0773H12.7204C10.7704 40.0773 9.19037 41.6573 9.19037 43.6073C9.19037 45.5573 10.7704 47.1273 12.7204 47.1273H28.8004C30.7404 47.1273 32.3204 45.5473 32.3204 43.6073C32.3204 41.6673 30.7404 40.0773 28.8004 40.0773ZM28.8004 45.4373H12.7204C11.7104 45.4373 10.8804 44.6173 10.8804 43.6073C10.8804 42.5973 11.7104 41.7673 12.7204 41.7673H18.4404C18.9004 41.7673 19.2804 41.3873 19.2804 40.9273V39.2673C19.2804 38.8373 19.4604 38.4573 19.7504 38.1873C19.9604 38.1973 20.1804 38.2073 20.3904 38.2073C20.8304 38.2073 21.2804 38.1873 21.7304 38.1573C22.0404 38.4273 22.2404 38.8273 22.2404 39.2673V40.9273C22.2404 41.3873 22.6104 41.7673 23.0804 41.7673H28.8004C29.8104 41.7673 30.6304 42.5873 30.6304 43.6073C30.6304 44.6273 29.8104 45.4373 28.8004 45.4373Z" fill="#272626"/>
<path d="M30.6309 43.6072C30.6309 44.6172 29.8109 45.4372 28.8009 45.4372H12.7209C11.7109 45.4372 10.8809 44.6172 10.8809 43.6072C10.8809 42.5972 11.7109 41.7672 12.7209 41.7672H18.4409C18.9009 41.7672 19.2809 41.3872 19.2809 40.9272V39.2672C19.2809 38.8372 19.4609 38.4572 19.7509 38.1872C19.9609 38.1972 20.1809 38.2072 20.3909 38.2072C20.8309 38.2072 21.2809 38.1872 21.7309 38.1572C22.0409 38.4272 22.2409 38.8272 22.2409 39.2672V40.9272C22.2409 41.3872 22.6109 41.7672 23.0809 41.7672H28.8009C29.8109 41.7672 30.6309 42.5872 30.6309 43.6072Z" fill="#AAD4C8"/>
</svg>
