<svg width="36" height="40" viewBox="0 0 36 40" fill="none" xmlns="http://www.w3.org/2000/svg">
<path d="M22.73 0C20.85 0 19.12 0.689998 17.52 1.49C15.92 0.689998 14.19 0 12.31 0C5.52 0 0 5.52 0 12.31C0 13.08 0.779998 15.25 2.42 19.53C2.83 20.61 3.21999 21.63 3.31999 21.96C3.43999 22.58 3.56 23.48 3.7 24.51C4.22 28.36 5 34.17 7.39 38.54C7.49 38.88 7.74999 39.28 8.20999 39.49C8.42999 39.59 8.67 39.64 8.92 39.64C9.45 39.64 10.06 39.42 10.76 38.97C11.71 38.36 11.87 36.79 12.14 34.2C12.68 28.97 13.49 24.26 17.46 23.95C21.42 24.26 22.23 28.97 22.77 34.2C23.04 36.79 23.2 38.36 24.15 38.97C25.19 39.63 26.02 39.8 26.7 39.49C27.16 39.28 27.41 38.88 27.52 38.54C29.77 34.44 30.67 29.31 31.4 25.18C31.57 24.19 31.74 23.26 31.91 22.42C32.23 21.58 35.04 14.05 35.04 12.31C35.04 5.52 29.52 0 22.73 0ZM30.18 21.84C30.18 21.84 30.14 21.93 30.13 21.98C29.95 22.86 29.78 23.83 29.6 24.86C28.89 28.89 28 33.9 25.87 37.75C25.86 37.76 25.85 37.77 25.85 37.78C25.72 37.75 25.5 37.66 25.17 37.45C24.9 37.06 24.72 35.3 24.59 34.01C24.12 29.43 23.41 22.51 17.52 22.12H17.39C11.5 22.51 10.79 29.43 10.32 34.01C10.19 35.3 10.01 37.06 9.73999 37.45C9.40999 37.66 9.19 37.75 9.06 37.78C9.06 37.78 9.04999 37.76 9.03999 37.75C6.77999 33.68 6.01999 28.01 5.50999 24.26C5.36999 23.18 5.23999 22.25 5.09999 21.56C5.09999 21.53 5.09999 21.51 5.09999 21.48C4.99999 21.14 4.68 20.31 4.14 18.88C3.4 16.97 1.88 12.98 1.84 12.31C1.84 6.53 6.53999 1.82999 12.32 1.82999C13.98 1.82999 15.6 2.54999 17.11 3.32999C17.37 3.45999 17.69 3.45999 17.95 3.32999C19.46 2.54999 21.08 1.82999 22.74 1.82999C28.52 1.82999 33.22 6.53 33.22 12.31C33.22 13.4 31.07 19.56 30.19 21.84H30.18Z" fill="#272626"/>
<path d="M22.7301 1.83008C21.0701 1.83008 19.4501 2.55008 17.9401 3.33008C17.6801 3.46008 17.3601 3.46008 17.1001 3.33008C15.5901 2.55008 13.9701 1.83008 12.3101 1.83008C6.53007 1.83008 1.83008 6.53008 1.83008 12.3101C1.87008 12.9801 3.39007 16.9701 4.13007 18.8801C4.67007 20.3101 4.99007 21.1401 5.09007 21.4801C5.09007 21.5101 5.09007 21.5301 5.09007 21.5601C5.23007 22.2501 5.36008 23.1801 5.50008 24.2601C6.01008 28.0101 6.77007 33.6801 9.03008 37.7501C9.04008 37.7601 9.05006 37.7701 9.05006 37.7801C9.18006 37.7501 9.40007 37.6601 9.73007 37.4501C10.0001 37.0601 10.1801 35.3001 10.3101 34.0101C10.7801 29.4301 11.4901 22.5101 17.3801 22.1201H17.5101C23.4001 22.5101 24.1101 29.4301 24.5801 34.0101C24.7101 35.3001 24.8901 37.0601 25.1601 37.4501C25.4901 37.6601 25.7101 37.7501 25.8401 37.7801C25.8401 37.7801 25.8501 37.7601 25.8601 37.7501C27.9901 33.9001 28.8801 28.8901 29.5901 24.8601C29.7701 23.8301 29.9401 22.8601 30.1201 21.9801C30.1301 21.9301 30.1501 21.8801 30.1701 21.8401C31.0501 19.5601 33.2001 13.4001 33.2001 12.3101C33.2001 6.53008 28.5001 1.83008 22.7201 1.83008H22.7301ZM28.8601 11.5001C28.5901 12.4601 27.9601 13.2601 27.0901 13.7501C26.5101 14.0801 25.8801 14.2301 25.2601 14.2301C23.9501 14.2301 22.6701 13.5401 21.9901 12.3201C21.5001 11.4501 21.3701 10.4401 21.6401 9.47009C21.9201 8.51009 22.5501 7.71008 23.4201 7.22009C24.2901 6.73009 25.3001 6.61008 26.2701 6.88008C27.2301 7.15008 28.0301 7.78009 28.5201 8.65009C29.0101 9.52009 29.1301 10.5301 28.8601 11.5001Z" fill="#AAD4C8"/>
<path d="M28.5202 8.65005C28.0302 7.78005 27.2302 7.15005 26.2702 6.88005C25.3002 6.61005 24.2902 6.73005 23.4202 7.22005C22.5502 7.71005 21.9202 8.51005 21.6402 9.47005C21.3702 10.44 21.5002 11.45 21.9902 12.32C22.6702 13.54 23.9502 14.23 25.2602 14.23C25.8802 14.23 26.5102 14.08 27.0902 13.75C27.9602 13.26 28.5902 12.46 28.8602 11.5C29.1302 10.53 29.0102 9.52005 28.5202 8.65005ZM26.3702 12.48C25.2702 13.09 23.8802 12.7 23.2602 11.6C22.9602 11.07 22.8902 10.45 23.0502 9.87004C23.2202 9.28004 23.6002 8.79005 24.1302 8.49005C24.4802 8.30005 24.8602 8.20005 25.2502 8.20005C25.4602 8.20005 25.6702 8.23005 25.8702 8.29005C26.4602 8.45005 26.9502 8.83004 27.2502 9.37004C27.8602 10.46 27.4702 11.86 26.3702 12.48Z" fill="#272626"/>
<path d="M26.3703 12.4799C25.2703 13.09 23.8803 12.7 23.2603 11.6C22.9603 11.07 22.8903 10.4499 23.0503 9.86995C23.2203 9.27995 23.6003 8.78995 24.1303 8.48995C24.4803 8.29995 24.8603 8.19995 25.2503 8.19995C25.4603 8.19995 25.6703 8.22996 25.8703 8.28996C26.4603 8.44996 26.9503 8.82995 27.2503 9.36995C27.8603 10.4599 27.4703 11.86 26.3703 12.4799Z" fill="#61BDAB"/>
</svg>
