<svg width="16" height="16" viewBox="0 0 16 16" fill="none" xmlns="http://www.w3.org/2000/svg">
<path d="M7.50033 8.50005H4.16699C4.02533 8.50005 3.90658 8.45212 3.81074 8.35625C3.71491 8.26037 3.66699 8.14157 3.66699 7.99985C3.66699 7.85812 3.71491 7.73939 3.81074 7.64367C3.90658 7.54794 4.02533 7.50008 4.16699 7.50008H7.50033V4.16675C7.50033 4.02508 7.54826 3.90633 7.64413 3.8105C7.74 3.71466 7.8588 3.66675 8.00053 3.66675C8.14226 3.66675 8.26099 3.71466 8.35671 3.8105C8.45243 3.90633 8.50029 4.02508 8.50029 4.16675V7.50008H11.8336C11.9753 7.50008 12.094 7.54802 12.1899 7.64388C12.2857 7.73976 12.3336 7.85856 12.3336 8.00028C12.3336 8.14202 12.2857 8.26074 12.1899 8.35647C12.094 8.45219 11.9753 8.50005 11.8336 8.50005H8.50029V11.8334C8.50029 11.975 8.45236 12.0938 8.35649 12.1896C8.26061 12.2855 8.14181 12.3334 8.00009 12.3334C7.85836 12.3334 7.73963 12.2855 7.64391 12.1896C7.54819 12.0938 7.50033 11.975 7.50033 11.8334V8.50005Z" fill="white"/>
</svg>
