<svg width="19" height="19" viewBox="0 0 19 19" fill="none" xmlns="http://www.w3.org/2000/svg">
<g opacity="0.8">
<path d="M3.16667 14.25C2.94236 14.25 2.75434 14.1741 2.6026 14.0224C2.45087 13.8707 2.375 13.6826 2.375 13.4583C2.375 13.234 2.45087 13.046 2.6026 12.8943C2.75434 12.7425 2.94236 12.6667 3.16667 12.6667H15.8333C16.0576 12.6667 16.2457 12.7425 16.3974 12.8943C16.5491 13.046 16.625 13.234 16.625 13.4583C16.625 13.6826 16.5491 13.8707 16.3974 14.0224C16.2457 14.1741 16.0576 14.25 15.8333 14.25H3.16667ZM3.16667 10.2917C2.94236 10.2917 2.75434 10.2158 2.6026 10.0641C2.45087 9.91233 2.375 9.72431 2.375 9.5C2.375 9.27569 2.45087 9.08767 2.6026 8.93594C2.75434 8.7842 2.94236 8.70833 3.16667 8.70833H14.2083C14.4326 8.70833 14.6207 8.7842 14.7724 8.93594C14.9241 9.08767 15 9.27569 15 9.5C15 9.72431 14.9241 9.91233 14.7724 10.0641C14.6207 10.2158 14.4326 10.2917 14.2083 10.2917H3.16667ZM3.16667 6.33333C2.94236 6.33333 2.75434 6.25747 2.6026 6.10573C2.45087 5.95399 2.375 5.76597 2.375 5.54167C2.375 5.31736 2.45087 5.12934 2.6026 4.9776C2.75434 4.82587 2.94236 4.75 3.16667 4.75H15.8333C16.0576 4.75 16.2457 4.82587 16.3974 4.9776C16.5491 5.12934 16.625 5.31736 16.625 5.54167C16.625 5.76597 16.5491 5.95399 16.3974 6.10573C16.2457 6.25747 16.0576 6.33333 15.8333 6.33333H3.16667Z" fill="#666666"/>
</g>
</svg>
