<svg width="17" height="17" viewBox="0 0 17 17" fill="none" xmlns="http://www.w3.org/2000/svg">
<path d="M8.5 17C7.33454 17 6.23477 16.7766 5.20067 16.3298C4.16656 15.883 3.26465 15.2748 2.49494 14.5051C1.72524 13.7353 1.11699 12.8334 0.670204 11.7993C0.223401 10.7652 0 9.66546 0 8.5C0 7.32537 0.223401 6.2233 0.670204 5.19378C1.11699 4.16427 1.72524 3.26465 2.49494 2.49494C3.26465 1.72524 4.16656 1.11699 5.20067 0.670205C6.23477 0.223402 7.33454 0 8.5 0C9.67463 0 10.7767 0.223402 11.8062 0.670205C12.8357 1.11699 13.7353 1.72524 14.5051 2.49494C15.2748 3.26465 15.883 4.16427 16.3298 5.19378C16.7766 6.2233 17 7.32537 17 8.5C17 9.66546 16.7766 10.7652 16.3298 11.7993C15.883 12.8334 15.2748 13.7353 14.5051 14.5051C13.7353 15.2748 12.8357 15.883 11.8062 16.3298C10.7767 16.7766 9.67463 17 8.5 17ZM8.5 15.639C8.95655 15.0333 9.34084 14.4225 9.65285 13.8065C9.96486 13.1905 10.2189 12.5171 10.4151 11.7864H6.5849C6.79252 12.5401 7.04948 13.2249 7.35576 13.8409C7.66203 14.4569 8.04344 15.0563 8.5 15.639ZM6.76734 15.3929C6.42435 14.9008 6.11635 14.3413 5.84334 13.7144C5.57032 13.0875 5.35811 12.4449 5.20669 11.7864H2.17142C2.64404 12.7156 3.27782 13.4962 4.07276 14.1283C4.86772 14.7603 5.76591 15.1819 6.76734 15.3929ZM10.2327 15.3929C11.2341 15.1819 12.1323 14.7603 12.9272 14.1283C13.7222 13.4962 14.356 12.7156 14.8286 11.7864H11.7933C11.6132 12.4506 11.3867 13.0961 11.1136 13.723C10.8406 14.3499 10.547 14.9066 10.2327 15.3929ZM1.60879 10.4444H4.93482C4.87862 10.1117 4.8379 9.78563 4.81267 9.46616C4.78744 9.14668 4.77482 8.82463 4.77482 8.5C4.77482 8.17537 4.78744 7.85332 4.81267 7.53384C4.8379 7.21437 4.87862 6.88831 4.93482 6.55564H1.60879C1.52276 6.85963 1.4568 7.17566 1.41091 7.50373C1.36503 7.8318 1.34209 8.16389 1.34209 8.5C1.34209 8.83611 1.36503 9.1682 1.41091 9.49627C1.4568 9.82434 1.52276 10.1404 1.60879 10.4444ZM6.27691 10.4444H10.7231C10.7793 10.1117 10.82 9.78849 10.8453 9.47475C10.8705 9.16103 10.8831 8.83611 10.8831 8.5C10.8831 8.16389 10.8705 7.83897 10.8453 7.52525C10.82 7.21151 10.7793 6.88831 10.7231 6.55564H6.27691C6.2207 6.88831 6.17998 7.21151 6.15473 7.52525C6.1295 7.83897 6.11688 8.16389 6.11688 8.5C6.11688 8.83611 6.1295 9.16103 6.15473 9.47475C6.17998 9.78849 6.2207 10.1117 6.27691 10.4444ZM12.0652 10.4444H15.3912C15.4772 10.1404 15.5432 9.82434 15.5891 9.49627C15.635 9.1682 15.6579 8.83611 15.6579 8.5C15.6579 8.16389 15.635 7.8318 15.5891 7.50373C15.5432 7.17566 15.4772 6.85963 15.3912 6.55564H12.0652C12.1214 6.88831 12.1621 7.21437 12.1873 7.53384C12.2126 7.85332 12.2252 8.17537 12.2252 8.5C12.2252 8.82463 12.2126 9.14668 12.1873 9.46616C12.1621 9.78563 12.1214 10.1117 12.0652 10.4444ZM11.7933 5.21358H14.8286C14.3502 4.27294 13.7207 3.49232 12.9401 2.87173C12.1595 2.25116 11.257 1.82673 10.2327 1.59845C10.5756 2.11923 10.8808 2.68877 11.148 3.30707C11.4153 3.92536 11.6304 4.56087 11.7933 5.21358ZM6.5849 5.21358H10.4151C10.2075 4.46567 9.94622 3.77654 9.63133 3.14619C9.31646 2.51587 8.93935 1.9208 8.5 1.36101C8.06065 1.9208 7.68354 2.51587 7.36867 3.14619C7.05378 3.77654 6.79252 4.46567 6.5849 5.21358ZM2.17142 5.21358H5.20669C5.36958 4.56087 5.58466 3.92536 5.85195 3.30707C6.11923 2.68877 6.42435 2.11923 6.76734 1.59845C5.73724 1.82673 4.83331 2.2526 4.05556 2.87605C3.27782 3.4995 2.64978 4.27868 2.17142 5.21358Z" fill="white"/>
</svg>
