<svg width="158" height="52" viewBox="0 0 158 52" fill="none" xmlns="http://www.w3.org/2000/svg">
<path d="M46.2193 39.5394C45.1397 39.1566 44.9351 38.9015 44.9351 38.4625C44.9351 38.0235 45.2457 37.6746 45.9844 37.6746C46.5261 37.6746 46.886 37.8509 47.28 38.1736L47.6664 37.7046C47.2118 37.3444 46.7496 37.1343 46.0223 37.1343C45.0147 37.1343 44.3328 37.6446 44.3328 38.5C44.3328 39.273 44.7268 39.6482 45.8935 40.0609C46.8822 40.4136 47.1815 40.695 47.1815 41.1903C47.1815 41.7568 46.7345 42.1095 46.0185 42.1095C45.4617 42.1095 44.9919 41.8544 44.5828 41.4679L44.1851 41.9107C44.6093 42.3384 45.2647 42.6536 45.9996 42.6536C47.1247 42.6536 47.7876 42.0007 47.7876 41.164C47.7876 40.3273 47.4201 39.9708 46.2231 39.5431L46.2193 39.5394Z" fill="white"/>
<path d="M50.235 38.4738C49.7084 38.4738 49.2311 38.6014 48.875 38.7927L49.0947 39.258C49.4243 39.0666 49.7728 38.9503 50.1971 38.9503C50.788 38.9503 51.0759 39.2392 51.0759 39.8396V40.3123C50.8373 40.181 50.4698 40.0797 50.0645 40.0797C49.2652 40.0797 48.5151 40.4624 48.5151 41.3629C48.5151 42.3309 49.1781 42.6461 49.8069 42.6461C50.3903 42.6461 50.788 42.376 51.0759 42.0721V42.5636H51.6517V39.7645C51.6517 38.834 51.1062 38.4663 50.235 38.4663V38.4738ZM51.0759 41.5843C50.8297 41.9182 50.4357 42.1846 49.913 42.1846C49.4167 42.1846 49.0834 41.9257 49.0834 41.3291C49.0834 40.8264 49.4394 40.5412 50.0342 40.5412C50.5266 40.5412 50.8108 40.6313 51.0759 40.7738V41.588V41.5843Z" fill="white"/>
<path d="M57.4625 40.2186V42.5674H58.0383V40.1248C58.0383 38.9541 57.5231 38.4739 56.6973 38.4739C56.0381 38.4739 55.7085 38.7778 55.4699 39.1605C55.2767 38.7778 54.932 38.4739 54.36 38.4739C53.8827 38.4739 53.5417 38.7028 53.3334 39.0479V38.5602H52.75V42.5711H53.3334V40.2223C53.3334 39.3331 53.6781 38.9692 54.235 38.9692C54.7918 38.9692 55.1062 39.3031 55.1062 40.2223V42.5711H55.6858V40.2223C55.6858 39.3331 56.0381 38.9692 56.5874 38.9692C57.1708 38.9692 57.4587 39.3031 57.4587 40.2223L57.4625 40.2186Z" fill="white"/>
<path d="M60.3607 40.2334C59.675 39.9258 59.4705 39.7945 59.4705 39.453C59.4705 39.1604 59.7129 38.9577 60.141 38.9577C60.569 38.9577 60.8342 39.0703 61.1486 39.3179L61.4706 38.894C61.1638 38.6426 60.7319 38.47 60.1789 38.47C59.4402 38.47 58.9136 38.8827 58.9136 39.4905C58.9136 40.1321 59.2508 40.376 60.0652 40.7212C60.7812 41.0251 61.0198 41.209 61.0198 41.5392C61.0198 41.9294 60.7584 42.1583 60.2016 42.1583C59.8 42.1583 59.4212 41.9969 59.0992 41.7155L58.7583 42.132C59.1447 42.4397 59.6296 42.646 60.1864 42.646C60.8872 42.646 61.5729 42.3046 61.5729 41.5129C61.5729 40.7963 61.1259 40.5749 60.3569 40.2297L60.3607 40.2334Z" fill="white"/>
<path d="M64.9518 40.9014C64.9518 41.7794 64.5085 42.1509 63.9517 42.1509C63.3001 42.1509 62.9933 41.7644 62.9933 40.9014V38.5564H62.4175V40.999C62.4175 42.1509 62.9819 42.6499 63.8342 42.6499C64.3456 42.6499 64.7207 42.4135 64.9518 42.0758V42.5674H65.5313V38.5564H64.9518V40.9014Z" fill="white"/>
<path d="M69.6225 42.5674V40.1248C69.6225 38.9692 69.0581 38.4739 68.202 38.4739C67.6944 38.4739 67.3156 38.7103 67.0883 39.0479V38.5602H66.5049V42.5711H67.0883V40.2223C67.0883 39.3444 67.5239 38.9692 68.0845 38.9692C68.7323 38.9692 69.0429 39.3594 69.0429 40.2223V42.5711H69.6225V42.5674Z" fill="white"/>
<path d="M71.4444 43.6028L71.63 44.0381C73.1339 43.993 73.6794 43.4115 73.6794 42.2033V38.5525H73.0998V39.0028C72.8157 38.6801 72.4672 38.47 71.9596 38.47C71.1111 38.47 70.4292 39.2016 70.4292 40.6237C70.4292 42.0457 71.0732 42.646 71.8801 42.646C72.4293 42.646 72.8157 42.3759 73.0998 42.072V42.2783C73.0998 43.2126 72.793 43.5653 71.4406 43.5991L71.4444 43.6028ZM72.0278 42.1508C71.3876 42.1508 71.0012 41.6255 71.0012 40.6162C71.0012 39.5393 71.3308 38.9652 72.0051 38.9652C72.4862 38.9652 72.8763 39.2316 73.0998 39.5656V41.5729C72.8157 41.9256 72.4596 42.1508 72.0278 42.1508Z" fill="white"/>
<path d="M80.0662 39.8545C80.0662 38.0197 79.0207 37.2168 77.6039 37.2168H76.1758V42.5673H77.4978C78.9411 42.5673 80.0662 41.7943 80.0662 39.8545ZM76.7781 37.7571H77.5585C78.801 37.7571 79.4639 38.5075 79.4639 39.8733C79.4639 41.4116 78.7366 42.0232 77.5736 42.0232H76.7781V37.7571Z" fill="white"/>
<path d="M81.6084 39.0516V38.5563H81.0288V42.5673H81.6084V40.211C81.6084 39.4456 81.9266 38.9991 82.491 38.9991C82.76 38.9991 82.9343 39.0591 83.0971 39.1529L83.2411 38.5751C83.1047 38.5151 82.9115 38.4775 82.6085 38.4775C82.1728 38.4775 81.7902 38.7364 81.6084 39.0554V39.0516Z" fill="white"/>
<path d="M86.7032 42.1846L86.4305 41.7719C86.0592 42.0157 85.7827 42.1546 85.3092 42.1546C84.65 42.1546 84.2371 41.6105 84.1841 40.7588H86.8812C86.9002 40.665 86.9078 40.5825 86.9078 40.4474C86.9078 39.303 86.332 38.4775 85.2751 38.4775C84.3129 38.4775 83.6045 39.2692 83.6045 40.5412C83.6045 42.1208 84.5061 42.6536 85.2485 42.6536C85.8584 42.6536 86.2145 42.4923 86.7032 42.1883V42.1846ZM85.2751 38.9691C85.9835 38.9691 86.3244 39.5131 86.3698 40.2898H84.1841C84.2523 39.393 84.6728 38.9691 85.2751 38.9691Z" fill="white"/>
<path d="M88.8397 42.6498C89.4193 42.6498 89.8171 42.3796 90.1012 42.0757V42.5672H90.6808V39.7682C90.6808 38.8377 90.1353 38.47 89.264 38.47C88.7375 38.47 88.2602 38.5975 87.9041 38.7889L88.12 39.2542C88.4534 39.0628 88.7981 38.9465 89.2223 38.9465C89.8171 38.9465 90.1012 39.2354 90.1012 39.8357V40.3085C89.8625 40.1772 89.4989 40.0759 89.0936 40.0759C88.2905 40.0759 87.5366 40.4586 87.5366 41.3591C87.5366 42.3271 88.2033 42.6423 88.836 42.6423L88.8397 42.6498ZM89.0632 40.5374C89.5557 40.5374 89.8436 40.6274 90.105 40.77V41.5842C89.8588 41.9181 89.4648 42.1845 88.942 42.1845C88.4496 42.1845 88.1124 41.9256 88.1124 41.3291C88.1124 40.8263 88.4723 40.5411 89.0632 40.5411V40.5374Z" fill="white"/>
<path d="M96.4917 40.2186V42.5674H97.0713V40.1248C97.0713 38.9541 96.5561 38.4739 95.7303 38.4739C95.075 38.4739 94.7416 38.7778 94.5067 39.1605C94.3135 38.7778 93.9688 38.4739 93.3968 38.4739C92.9157 38.4739 92.5786 38.7028 92.3702 39.0479V38.5602H91.7944V42.5711H92.3702V40.2223C92.3702 39.3331 92.7187 38.9692 93.2756 38.9692C93.8325 38.9692 94.1507 39.3031 94.1507 40.2223V42.5711H94.7265V40.2223C94.7265 39.3331 95.0788 38.9692 95.6318 38.9692C96.2152 38.9692 96.5031 39.3031 96.5031 40.2223L96.4917 40.2186Z" fill="white"/>
<path d="M46.2193 47.4975C45.1359 47.1148 44.9389 46.8634 44.9389 46.4207C44.9389 45.9779 45.2495 45.6365 45.9882 45.6365C46.5299 45.6365 46.8936 45.8091 47.2838 46.1318L47.6702 45.6665C47.2156 45.3101 46.7496 45.0962 46.0261 45.0962C45.0147 45.0962 44.3366 45.599 44.3366 46.4619C44.3366 47.2349 44.7306 47.6063 45.8973 48.0191C46.886 48.3755 47.1853 48.6532 47.1853 49.1522C47.1853 49.715 46.7383 50.0677 46.0185 50.0677C45.4617 50.0677 44.9919 49.8125 44.5828 49.4261L44.1851 49.8688C44.6093 50.2966 45.2647 50.608 45.9996 50.608C47.1247 50.608 47.7838 49.9589 47.7838 49.1184C47.7838 48.278 47.4164 47.9253 46.2231 47.4975H46.2193Z" fill="white"/>
<path d="M50.2422 46.9272C50.6513 46.9272 50.9202 47.0698 51.2119 47.3325L51.5604 46.9047C51.2422 46.6271 50.8217 46.4282 50.28 46.4282C49.4315 46.4282 48.5337 47.0548 48.5337 48.5369C48.5337 49.9364 49.3481 50.6043 50.2384 50.6043C50.8066 50.6043 51.2006 50.3904 51.5415 50.0452L51.193 49.6813C50.9164 49.9477 50.6551 50.1053 50.2611 50.1053C49.5451 50.1053 49.1171 49.4712 49.1171 48.4844C49.1171 47.4976 49.6057 46.9197 50.2384 46.9197L50.2422 46.9272Z" fill="white"/>
<path d="M54.0345 46.432C53.5269 46.432 53.1443 46.6684 52.9132 47.0061V45.1226H52.3374V50.533H52.9132V48.1842C52.9132 47.3063 53.3564 46.9311 53.9171 46.9311C54.5686 46.9311 54.8755 47.3175 54.8755 48.1842V50.533H55.455V48.0829C55.455 46.9311 54.8906 46.432 54.0345 46.432Z" fill="white"/>
<path d="M58.0381 46.4321C57.0532 46.4321 56.269 47.1638 56.269 48.5258C56.269 49.8878 57.0229 50.6119 58.0078 50.6119C58.9927 50.6119 59.7845 49.8578 59.7845 48.4958C59.7845 47.1338 59.023 46.4321 58.0381 46.4321ZM58.0267 50.1129C57.3221 50.1129 56.8486 49.5651 56.8486 48.5108C56.8486 47.4564 57.3221 46.9312 58.0267 46.9312C58.7313 46.9312 59.2049 47.4564 59.2049 48.5108C59.2049 49.5651 58.7276 50.1129 58.0267 50.1129Z" fill="white"/>
<path d="M61.2353 45.1189H60.6558V50.5294H61.2353V45.1189Z" fill="white"/>
<path d="M63.8835 46.4321C63.357 46.4321 62.8797 46.5635 62.5274 46.7548L62.7433 47.2238C63.0766 47.0325 63.4251 46.9161 63.8494 46.9161C64.4404 46.9161 64.7283 47.2088 64.7283 47.8016V48.2781C64.4896 48.1468 64.126 48.0455 63.7206 48.0455C62.9175 48.0455 62.1675 48.4282 62.1675 49.3325C62.1675 50.3005 62.8304 50.6119 63.463 50.6119C64.0426 50.6119 64.4404 50.3455 64.7283 50.0416V50.5331H65.3079V47.7379C65.3079 46.7998 64.7586 46.4359 63.8873 46.4359L63.8835 46.4321ZM64.7245 49.5426C64.482 49.8728 64.0805 50.1429 63.5615 50.1429C63.0691 50.1429 62.7357 49.884 62.7357 49.2875C62.7357 48.7809 63.0918 48.5033 63.6865 48.5033C64.179 48.5033 64.4631 48.5858 64.7245 48.7322V49.5426Z" fill="white"/>
<path d="M66.9858 47.0136V46.5109H66.4062V50.5256H66.9858V48.1693C66.9858 47.4076 67.2965 46.9536 67.8647 46.9536C68.1374 46.9536 68.3117 47.0136 68.4746 47.1074L68.6223 46.5259C68.4822 46.4658 68.2927 46.4246 67.9897 46.4246C67.5578 46.4246 67.1677 46.6835 66.9896 47.0099L66.9858 47.0136Z" fill="white"/>
<path d="M70.8425 48.1956C70.1568 47.8879 69.9485 47.7491 69.9485 47.4152C69.9485 47.1263 70.1947 46.9199 70.619 46.9199C71.0433 46.9199 71.316 47.0362 71.6304 47.2801L71.9524 46.8599C71.6418 46.6085 71.2137 46.4321 70.6569 46.4321C69.922 46.4321 69.3879 46.8449 69.3879 47.4564C69.3879 48.068 69.7288 48.3419 70.5395 48.6834C71.2554 48.9873 71.4941 49.1749 71.4941 49.5013C71.4941 49.8953 71.2327 50.1204 70.6796 50.1204C70.2743 50.1204 69.8993 49.9591 69.5735 49.6777L69.2363 50.0979C69.6227 50.4056 70.1076 50.6082 70.6645 50.6082C71.3653 50.6082 72.0509 50.263 72.0509 49.4788C72.0509 48.7584 71.6039 48.5408 70.8387 48.1956H70.8425Z" fill="white"/>
<path d="M74.695 46.432C74.1798 46.432 73.8048 46.6684 73.5737 47.0061V45.1226H72.9941V50.533H73.5737V48.1842C73.5737 47.3063 74.0132 46.9311 74.5776 46.9311C75.2254 46.9311 75.5322 47.3175 75.5322 48.1842V50.533H76.1118V48.0829C76.1118 46.9311 75.5511 46.432 74.695 46.432Z" fill="white"/>
<path d="M77.8317 46.5107H77.2559V50.5255H77.8317V46.5107Z" fill="white"/>
<path d="M77.5548 44.98C77.3199 44.98 77.1343 45.1638 77.1343 45.3965C77.1343 45.6291 77.3199 45.8017 77.5548 45.8017C77.7707 45.8017 77.9563 45.6141 77.9563 45.3965C77.9563 45.1638 77.7707 44.98 77.5548 44.98Z" fill="white"/>
<path d="M80.7974 46.4321C80.2519 46.4321 79.8655 46.7023 79.5776 47.0062V46.5147H78.998V52.004H79.5776V50.0791C79.8618 50.3981 80.2103 50.6119 80.7217 50.6119C81.5664 50.6119 82.2483 49.8765 82.2483 48.4582C82.2483 47.04 81.6043 46.4321 80.7974 46.4321ZM80.6724 50.1129C80.1951 50.1129 79.8011 49.8465 79.5776 49.5088V47.5052C79.8618 47.1563 80.2178 46.9274 80.6497 46.9274C81.2937 46.9274 81.6801 47.4527 81.6801 48.462C81.6801 49.5388 81.3467 50.1092 80.6762 50.1092L80.6724 50.1129Z" fill="white"/>
<path d="M85.3133 45.7193H87.8816V45.179H84.7109V50.5294H85.3133V48.0343H86.7944V47.494H85.3133V45.7193Z" fill="white"/>
<path d="M89.6391 46.4321C88.6541 46.4321 87.8662 47.1638 87.8662 48.5258C87.8662 49.8878 88.6238 50.6119 89.6088 50.6119C90.5937 50.6119 91.3854 49.8578 91.3854 48.4958C91.3854 47.1338 90.6316 46.4321 89.6391 46.4321ZM89.6239 50.1129C88.9193 50.1129 88.4534 49.5651 88.4534 48.5108C88.4534 47.4564 88.9231 46.9312 89.6239 46.9312C90.3247 46.9312 90.8058 47.4564 90.8058 48.5108C90.8058 49.5651 90.3285 50.1129 89.6239 50.1129Z" fill="white"/>
<path d="M94.5787 48.8595C94.5787 49.7375 94.1431 50.1127 93.5786 50.1127C92.9309 50.1127 92.6202 49.7263 92.6202 48.8595V46.5107H92.0444V48.9571C92.0444 50.109 92.6089 50.608 93.465 50.608C93.9688 50.608 94.3476 50.3754 94.5787 50.0377V50.5292H95.1621V46.5145H94.5787V48.8633V48.8595Z" fill="white"/>
<path d="M97.8289 46.432C97.3213 46.432 96.9425 46.6684 96.7114 47.006V46.5145H96.1318V50.5292H96.7114V48.1804C96.7114 47.3025 97.1509 46.9272 97.7153 46.9272C98.3631 46.9272 98.6699 47.3137 98.6699 48.1804V50.5292H99.2495V48.0791C99.2495 46.9272 98.685 46.4282 97.8289 46.4282V46.432Z" fill="white"/>
<path d="M102.731 46.9687C102.443 46.646 102.098 46.4284 101.587 46.4284C100.738 46.4284 100.06 47.16 100.06 48.5858C100.06 50.0116 100.7 50.6082 101.511 50.6082C102.06 50.6082 102.443 50.3418 102.727 50.0379V50.5294H103.306V45.1189H102.727V46.9687H102.731ZM102.731 49.5313C102.443 49.8803 102.09 50.1092 101.659 50.1092C101.018 50.1092 100.632 49.5839 100.632 48.5746C100.632 47.494 100.962 46.9236 101.636 46.9236C102.113 46.9236 102.503 47.19 102.731 47.5277V49.5276V49.5313Z" fill="white"/>
<path d="M105.762 46.4321C105.239 46.4321 104.762 46.5635 104.406 46.7548L104.618 47.2238C104.951 47.0325 105.3 46.9161 105.724 46.9161C106.315 46.9161 106.599 47.2088 106.599 47.8016V48.2781C106.36 48.1468 105.997 48.0455 105.587 48.0455C104.788 48.0455 104.038 48.4282 104.038 49.3325C104.038 50.3005 104.705 50.6119 105.337 50.6119C105.917 50.6119 106.315 50.3455 106.599 50.0416V50.5331H107.178V47.7379C107.178 46.7998 106.633 46.4359 105.758 46.4359L105.762 46.4321ZM106.599 49.5426C106.353 49.8728 105.962 50.1429 105.432 50.1429C104.943 50.1429 104.614 49.884 104.614 49.2875C104.614 48.7809 104.966 48.5033 105.561 48.5033C106.053 48.5033 106.341 48.5858 106.599 48.7322V49.5426Z" fill="white"/>
<path d="M109.027 45.1189H108.443V46.5109H107.943V46.9949H108.443V49.7002C108.443 50.3643 108.716 50.6044 109.22 50.6044C109.523 50.6044 109.739 50.5594 109.962 50.4694L110.004 49.9741C109.818 50.0491 109.667 50.0866 109.432 50.0866C109.125 50.0866 109.027 49.9628 109.027 49.6064V46.9949H110.031V46.5109H109.027V45.1189Z" fill="white"/>
<path d="M111.345 44.98C111.106 44.98 110.917 45.1638 110.917 45.3965C110.917 45.6291 111.106 45.8017 111.345 45.8017C111.561 45.8017 111.743 45.6141 111.743 45.3965C111.743 45.1638 111.557 44.98 111.345 44.98Z" fill="white"/>
<path d="M111.622 46.5107H111.042V50.5255H111.622V46.5107Z" fill="white"/>
<path d="M114.266 46.4321C113.281 46.4321 112.493 47.1638 112.493 48.5258C112.493 49.8878 113.247 50.6119 114.236 50.6119C115.224 50.6119 116.009 49.8578 116.009 48.4958C116.009 47.1338 115.251 46.4321 114.266 46.4321ZM114.251 50.1129C113.55 50.1129 113.077 49.5651 113.077 48.5108C113.077 47.4564 113.55 46.9312 114.251 46.9312C114.952 46.9312 115.433 47.4564 115.433 48.5108C115.433 49.5651 114.955 50.1129 114.251 50.1129Z" fill="white"/>
<path d="M118.543 46.432C118.035 46.432 117.656 46.6684 117.421 47.006V46.5145H116.842V50.5292H117.421V48.1804C117.421 47.3025 117.861 46.9272 118.425 46.9272C119.073 46.9272 119.384 47.3137 119.384 48.1804V50.5292H119.959V48.0791C119.959 46.9272 119.395 46.4282 118.543 46.4282V46.432Z" fill="white"/>
<path d="M66.4708 26.6848C64.1448 26.6886 62.228 28.4896 62.228 30.7483C62.228 33.0071 64.1448 34.7893 66.4708 34.7968C68.8194 34.7893 70.7173 32.9845 70.7173 30.7483C70.7173 28.5121 68.8194 26.6886 66.4708 26.6848ZM66.4139 32.9433C65.1979 32.9433 64.2812 31.9602 64.2812 30.7483C64.2812 29.5364 65.2623 28.5346 66.4745 28.5346C67.6867 28.5346 68.6338 29.5176 68.6338 30.7483C68.6338 31.979 67.6413 32.9433 66.4177 32.9433H66.4139Z" fill="white"/>
<path d="M47.0035 23.8894C47.6513 24.5235 48.3938 25.0788 49.1249 25.4353L49.2006 25.4766L50.4545 24.0095L50.3333 23.942C49.1438 23.3041 48.2119 22.4974 47.602 21.4806C46.9959 20.4788 46.6853 19.3157 46.6853 17.9236V16.6179H44.4427V17.7848C44.4427 19.2931 44.098 20.4788 43.4502 21.5181C42.7267 22.67 41.6546 23.5968 40.2833 24.456L40.1621 24.531L41.5221 25.9268L41.5978 25.8855C42.4085 25.4503 43.2684 24.7787 44.0147 24.0283C44.6624 23.3717 45.2231 22.67 45.564 22.0059C45.8936 22.6588 46.3974 23.3229 47.0035 23.8932V23.8894Z" fill="white"/>
<path d="M44.5752 33.8361H53.9622V27.4839H44.5752V33.8361ZM46.6852 29.2774H51.8522V32.0427H46.6852V29.2774Z" fill="white"/>
<path d="M75.873 33.8361H86.4874V27.4839H75.873V33.8361ZM77.9603 29.2774H84.404V32.0427H77.9603V29.2774Z" fill="white"/>
<path d="M54.0004 16.2427H51.9131V26.756H54.0004V22.1034H56.4437V20.2349H54.0004V16.2427Z" fill="white"/>
<path d="M97.2758 24.4259C97.9615 25.015 98.7456 25.5103 99.4843 25.8292L99.5601 25.863L100.689 24.3509L100.568 24.2908C99.4919 23.7468 98.5335 23.0714 97.8441 22.246C97.1432 21.4055 96.7265 20.3924 96.7265 19.173V18.8166H99.8328V17.0081H91.4004V18.8166H94.5029V19.2518C94.5029 20.3624 94.1317 21.398 93.5142 22.2947C92.7907 23.3716 91.7338 24.2383 90.7072 24.8011L90.5708 24.8724L91.9573 26.2944L92.033 26.2569C92.7793 25.8367 93.6051 25.2026 94.3097 24.4897C94.8741 23.9044 95.3818 23.2853 95.6924 22.6662C96.0674 23.2665 96.6432 23.8668 97.2796 24.4259H97.2758Z" fill="white"/>
<path d="M112.372 29.3186H119.96V33.8324H122.066V27.5251H112.372V29.3186Z" fill="white"/>
<path d="M117.607 22.0885C117.607 21.0942 117.156 20.1787 116.49 19.4808H118.573V17.691H114.596V15.7212H112.334V17.691H108.262V19.4808H110.391C109.739 20.1787 109.288 21.0867 109.288 22.0885C109.288 24.3059 111.133 26.1069 113.44 26.1144C115.747 26.1069 117.603 24.3059 117.607 22.0885ZM111.3 22.0059C111.3 20.779 112.345 19.7397 113.44 19.7397C114.535 19.7397 115.577 20.7827 115.58 22.0059C115.58 23.2141 114.535 24.2572 113.44 24.2609C112.342 24.2572 111.304 23.2141 111.3 22.0059Z" fill="white"/>
<path d="M122.066 16.2427H119.982V26.7935H122.066V22.7675H124.517V20.899H122.066V16.2427Z" fill="white"/>
<path d="M104.386 16.2427H102.303V26.7935H104.386V22.1034H106.833V20.2349H104.386V16.2427Z" fill="white"/>
<path d="M69.0203 19.3719H65.7397V21.2217H69.0203V27.1274H71.1076V16.2427H69.0203V19.3719Z" fill="white"/>
<path d="M63.7205 24.1633C64.3721 24.7937 65.1335 25.349 65.8608 25.7242L65.9404 25.7692L67.1943 24.3022L67.073 24.2346C65.8836 23.6155 64.9706 22.8126 64.3569 21.8108C63.7357 20.8165 63.425 19.6083 63.425 18.2163V16.6179H61.1787V18.0812C61.1787 19.5896 60.8377 20.7715 60.2051 21.792C59.4854 22.9627 58.3906 23.8969 57.0193 24.7487L56.9019 24.8237L58.2694 26.2232L58.3376 26.1782C59.1444 25.7392 59.9854 25.1051 60.7317 24.381C61.406 23.7168 61.9666 22.9927 62.3075 22.2986C62.6295 22.9327 63.122 23.578 63.7205 24.1671V24.1633Z" fill="white"/>
<path d="M99.9125 26.6848C97.5866 26.6886 95.6698 28.4896 95.666 30.7483C95.6698 32.9845 97.5828 34.7893 99.9125 34.7968C102.257 34.7893 104.159 32.9845 104.159 30.7483C104.159 28.5121 102.257 26.6886 99.9125 26.6848ZM99.8519 32.9433C98.6397 32.9433 97.7154 31.9602 97.7154 30.7483C97.7154 29.5364 98.6928 28.5346 99.9125 28.5346C101.132 28.5346 102.068 29.5176 102.072 30.7483C102.072 31.9565 101.075 32.9433 99.8519 32.9433Z" fill="white"/>
<path d="M78.4149 22.2723H80.5021V16.9031H74.8691V18.6891H78.4149V22.2723Z" fill="white"/>
<path d="M84.6806 22.2723H86.7717V16.9031H81.1387V18.6891H84.6806V22.2723Z" fill="white"/>
<path d="M137.885 20.9966H136.131V16.5353H134.158V33.3822H136.131V23.0227H137.885V33.8324H139.931V16.2427H137.885V20.9966Z" fill="white"/>
<path d="M131.263 23.3266C130.794 22.3098 130.6 21.1729 130.6 19.7772V19.1131H132.968V17.2183H126.089V19.1131H128.532V19.8147C128.532 21.1354 128.358 22.216 127.937 23.2178C127.449 24.3697 126.627 25.4053 125.316 26.5159L125.225 26.5984L126.521 27.8704L126.6 27.8104C127.252 27.3339 127.934 26.6435 128.502 25.9306C128.983 25.3302 129.388 24.7074 129.642 24.1596C129.903 24.6924 130.313 25.304 130.79 25.8743C131.343 26.5422 131.968 27.1763 132.567 27.5552L132.646 27.6078L133.737 26.317L133.65 26.2382C132.476 25.2252 131.748 24.3209 131.271 23.3229L131.263 23.3266Z" fill="white"/>
<path d="M73.123 24.7711H80.0516V26.7747H82.3131V24.7711H89.3515V22.9739H73.123V24.7711Z" fill="white"/>
<path d="M151.814 24.197H144.761V18.8803H150.132V17.0081H142.647V26.013H151.814V24.197Z" fill="white"/>
<path d="M147.825 28.2268H145.715V33.8324H155.583V31.9864H147.825V28.2268Z" fill="white"/>
<path d="M155.534 21.113V16.239H153.451V29.2174H155.534V22.9815H158V21.113H155.534Z" fill="white"/>
<path d="M44.2494 10.8135L38.8437 8.596L44.2494 6.37853L43.2872 4.08601L37.8853 6.30348L40.1241 0.949275L37.8058 0L35.5707 5.35421L33.3319 0L31.0136 0.949275L33.2524 6.30348L27.8505 4.08601L26.8921 6.37853L32.294 8.596L26.8921 10.8135L27.8505 13.106L33.2524 10.8885L31.0136 16.2427L33.3319 17.192L35.5707 11.8415L37.8058 17.192L40.1241 16.239L37.8853 10.8885L43.2872 13.106L44.2494 10.8135Z" fill="#009FE3"/>
<path d="M9.27328 25.7504H12.8682V16.2427H0.575684V19.4469H9.27328V25.7504Z" fill="#009FE3"/>
<path d="M23.2972 25.7504H26.8922V16.2427H14.5996V19.4469H23.2972V25.7504Z" fill="#009FE3"/>
<path d="M0 30.6694H23.2971V35.5658H26.8921V27.4651H0V30.6694Z" fill="#009FE3"/>
<path d="M8.69775 50.5292H26.8922V37.2131H8.69775V50.5292ZM12.2927 40.4174H23.3011V47.325H12.2927V40.4174Z" fill="#009FE3"/>
</svg>
