<svg xmlns="http://www.w3.org/2000/svg" xmlns:xlink="http://www.w3.org/1999/xlink" width="118.434" height="44.512" viewBox="0 0 118.434 44.512">
  <defs>
    <clipPath id="clip-path">
      <rect id="사각형_10" data-name="사각형 10" width="118.434" height="44.512" transform="translate(0 0)" fill="#1d1d1d"/>
    </clipPath>
  </defs>
  <g id="logo_k" transform="translate(0 0)">
    <g id="그룹_1" data-name="그룹 1" clip-path="url(#clip-path)">
      <path id="패스_1" data-name="패스 1" d="M104.881,34.975a3.938,3.938,0,0,1-3.708-5.252L108.031,10.4,87.395,17.7A3.934,3.934,0,1,1,84.77,10.28L113.187.225a3.934,3.934,0,0,1,5.02,5.025l-9.618,27.1a3.936,3.936,0,0,1-3.708,2.62" fill="#e60019"/>
      <rect id="사각형_8" data-name="사각형 8" width="2.834" height="9.667" transform="translate(81.354 23.1)" fill="#1d1d1d"/>
      <rect id="사각형_9" data-name="사각형 9" width="2.834" height="5.542" transform="translate(81.354 34.975)" fill="#1d1d1d"/>
      <path id="패스_2" data-name="패스 2" d="M3.75,41.185h0s0,.04,0,.1v.233l.012.009c.057.781.377,2.637,2.155,2.637H17.25V42.538h-.021V37.163h.021V35.538H3.75Zm2.833-4.022H14.4v5.375H6.583ZM17.25,23.2H2.916V24.83h11.5v6.791H0v1.625H21.5V31.621H17.25ZM83.812,34.976H70.062V36.6h13.75ZM59.937,36.767h2.834V23.1H59.937v5.625H55.646v1.625h4.291ZM83.9,27.059H78.228v1.625H83.9Zm-48.87,9.935a6.052,6.052,0,0,0,5.018-5.769,5.7,5.7,0,0,0-2.088-4.354H42.11V25.247H35.026V22.934H32.193v2.313H25.11v1.624h4.154a5.692,5.692,0,0,0-2.088,4.354,6.051,6.051,0,0,0,5.017,5.769v2.94H22.672v1.625H44.547V39.934H35.026Zm-5-5.768a3.588,3.588,0,1,1,3.584,3.416,3.5,3.5,0,0,1-3.584-3.416M51.843,42.885l-.024-6.938-2.833.01L49,41.541v.332l.013.01c.059.78.385,2.636,2.163,2.629l12-.038-.005-1.625Zm32.417-.036-11.337.036s-2.776-1.776-.012-2.368,11.068,0,11.068,0V38.892h-13.9v.065h-.014l.02,2.916.013.01c.059.781.385,2.636,2.163,2.629l12-.038ZM55.145,23.725H46.229V25.35h6.094c-.247,4.463-6.906,8.25-6.906,8.25l.75,1.083c9.333-4,8.978-10.959,8.978-10.959m16.6,2.209c.917.583,3.833,3.833,3.583,6.917H77.75s-1.5-6.75-5.583-9.167c0,0-1.668-.75-2.334.25s-3.083,8.833-3.083,8.833H69s1.833-7.416,2.75-6.833" fill="#1d1d1d"/>
    </g>
  </g>
</svg>
