<svg xmlns="http://www.w3.org/2000/svg" xmlns:xlink="http://www.w3.org/1999/xlink" width="142.717" height="46.907" viewBox="0 0 142.717 46.907">
  <defs>
    <clipPath id="clip-path">
      <rect id="사각형_63" data-name="사각형 63" width="142.717" height="46.907" fill="none"/>
    </clipPath>
  </defs>
  <g id="logo" transform="translate(0 0)">
    <g id="그룹_21" data-name="그룹 21" transform="translate(0 0)" clip-path="url(#clip-path)">
      <path id="패스_298" data-name="패스 298" d="M28.862,21.133s-4.892-3.236-8.208,1.406c0,0-1.326,3.316,1.989,9.284,1.963,3.532-.257,4.277-2.4,4.3A3.979,3.979,0,0,1,16.4,33.138a22.816,22.816,0,0,1-.387-9.936S8.718,35.138,12.033,45.085c3.263,9.789-24.694-17.724-2-41.331a3.543,3.543,0,0,1,3.883-.914C15.153,3.361,16.1,4.706,14.967,8,12.7,14.582,4.076,11.929,7.391,37.791c0,0-2.652-23.872,17.9-25.2" transform="translate(-0.361 -0.873)" fill="#fff"/>
      <path id="패스_299" data-name="패스 299" d="M28.862,21.133s-4.892-3.236-8.208,1.406c0,0-1.326,3.316,1.989,9.284,1.963,3.532-.257,4.277-2.4,4.3A3.979,3.979,0,0,1,16.4,33.138a22.816,22.816,0,0,1-.387-9.936S8.718,35.138,12.033,45.085c3.263,9.789-24.694-17.724-2-41.331a3.543,3.543,0,0,1,3.883-.914C15.153,3.361,16.1,4.706,14.967,8,12.7,14.582,4.076,11.929,7.391,37.791c0,0-2.652-23.872,17.9-25.2" transform="translate(-0.361 -0.873)" fill="none" stroke="#fff" stroke-miterlimit="10" stroke-width="1"/>
      <path id="패스_300" data-name="패스 300" d="M11.571,47.282c-1.213,0-3.182-2.03-4.617-3.942C5.347,41.2-8.225,21.9,9.6,3.358a3.877,3.877,0,0,1,4.252-.99c1.255.53,2.487,1.928,1.231,5.571a10.864,10.864,0,0,1-3.053,4.288c-2.7,2.688-5.986,5.955-5.1,19.369.391-4.036,1.6-9.318,4.98-13.352,3.118-3.717,7.548-5.787,13.168-6.149l.043.662c-5.431.35-9.7,2.339-12.7,5.911-6.1,7.275-4.908,18.8-4.9,18.92l-.658.078C4.456,18.833,8.4,14.909,11.567,11.756a10.2,10.2,0,0,0,2.893-4.034c.875-2.536.584-4.133-.863-4.745a3.213,3.213,0,0,0-3.516.84c-17.448,18.147-4.17,37.031-2.6,39.124,2.2,2.932,3.842,3.842,4.188,3.658.09-.048.239-.423-.145-1.577-3.326-9.978,3.936-22.04,4.01-22.161l.927-1.517-.318,1.749a22.5,22.5,0,0,0,.381,9.792,3.645,3.645,0,0,0,3.494,2.735h.032c.966-.009,2.209-.178,2.649-.933.358-.615.176-1.581-.541-2.871-3.353-6.036-2.064-9.426-2.007-9.567l.037-.07c3.463-4.847,8.609-1.523,8.661-1.489l-.365.553c-.188-.124-4.642-2.985-7.729,1.284-.117.352-1.031,3.543,1.983,8.967.838,1.509,1.017,2.695.534,3.526s-1.562,1.248-3.216,1.263h-.038a4.308,4.308,0,0,1-4.135-3.226,23.094,23.094,0,0,1-.651-8.254c-1.807,3.56-5.6,12.434-3.079,20.009.43,1.289.371,2.088-.176,2.374a.865.865,0,0,1-.409.1" transform="translate(-0.168 -0.706)" fill="#fff"/>
      <path id="패스_301" data-name="패스 301" d="M11.571,47.282c-1.213,0-3.182-2.03-4.617-3.942C5.347,41.2-8.225,21.9,9.6,3.358a3.877,3.877,0,0,1,4.252-.99c1.255.53,2.487,1.928,1.231,5.571a10.864,10.864,0,0,1-3.053,4.288c-2.7,2.688-5.986,5.955-5.1,19.369.391-4.036,1.6-9.318,4.98-13.352,3.118-3.717,7.548-5.787,13.168-6.149l.043.662c-5.431.35-9.7,2.339-12.7,5.911-6.1,7.275-4.908,18.8-4.9,18.92l-.658.078C4.456,18.833,8.4,14.909,11.567,11.756a10.2,10.2,0,0,0,2.893-4.034c.875-2.536.584-4.133-.863-4.745a3.213,3.213,0,0,0-3.516.84c-17.448,18.147-4.17,37.031-2.6,39.124,2.2,2.932,3.842,3.842,4.188,3.658.09-.048.239-.423-.145-1.577-3.326-9.978,3.936-22.04,4.01-22.161l.927-1.517-.318,1.749a22.5,22.5,0,0,0,.381,9.792,3.645,3.645,0,0,0,3.494,2.735h.032c.966-.009,2.209-.178,2.649-.933.358-.615.176-1.581-.541-2.871-3.353-6.036-2.064-9.426-2.007-9.567l.037-.07c3.463-4.847,8.609-1.523,8.661-1.489l-.365.553c-.188-.124-4.642-2.985-7.729,1.284-.117.352-1.031,3.543,1.983,8.967.838,1.509,1.017,2.695.534,3.526s-1.562,1.248-3.216,1.263h-.038a4.308,4.308,0,0,1-4.135-3.226,23.094,23.094,0,0,1-.651-8.254c-1.807,3.56-5.6,12.434-3.079,20.009.43,1.289.371,2.088-.176,2.374A.865.865,0,0,1,11.571,47.282Z" transform="translate(-0.168 -0.706)" fill="none" stroke="#fff" stroke-miterlimit="10" stroke-width="1"/>
      <path id="패스_302" data-name="패스 302" d="M52.748,30.993s4.642,1.989,2.652,6.631c-1.46,3.405-5.417,5.74-7.422,6.742a1.5,1.5,0,0,0-.671,2.054c.635,1.147,1.988,2.346,4.777,1.151,4.642-1.989,13.412-11.918,6.043-19.885" transform="translate(-15.877 -9.327)" fill="#fff"/>
      <path id="패스_303" data-name="패스 303" d="M52.748,30.993s4.642,1.989,2.652,6.631c-1.46,3.405-5.417,5.74-7.422,6.742a1.5,1.5,0,0,0-.671,2.054c.635,1.147,1.988,2.346,4.777,1.151,4.642-1.989,13.412-11.918,6.043-19.885" transform="translate(-15.877 -9.327)" fill="none" stroke="#fff" stroke-miterlimit="10" stroke-width="1"/>
      <path id="패스_304" data-name="패스 304" d="M49.817,48.282a3.3,3.3,0,0,1-2.968-1.816,1.771,1.771,0,0,1-.139-1.392,1.88,1.88,0,0,1,.952-1.119c2.114-1.057,5.868-3.316,7.265-6.576,1.833-4.276-2.3-6.119-2.478-6.2l.261-.609A6.6,6.6,0,0,1,54.9,32.239a4.877,4.877,0,0,1,.632,5.4c-1.481,3.455-5.384,5.811-7.579,6.908a1.217,1.217,0,0,0-.614.723,1.113,1.113,0,0,0,.085.874c.853,1.541,2.318,1.881,4.357,1.007a16.852,16.852,0,0,0,8.451-10.612A9.411,9.411,0,0,0,57.715,27.8l.487-.45a10.169,10.169,0,0,1,2.683,9.33,17.612,17.612,0,0,1-8.839,11.085,5.708,5.708,0,0,1-2.23.521" transform="translate(-15.708 -9.213)" fill="#fff"/>
      <path id="패스_305" data-name="패스 305" d="M49.817,48.282a3.3,3.3,0,0,1-2.968-1.816,1.771,1.771,0,0,1-.139-1.392,1.88,1.88,0,0,1,.952-1.119c2.114-1.057,5.868-3.316,7.265-6.576,1.833-4.276-2.3-6.119-2.478-6.2l.261-.609A6.6,6.6,0,0,1,54.9,32.239a4.877,4.877,0,0,1,.632,5.4c-1.481,3.455-5.384,5.811-7.579,6.908a1.217,1.217,0,0,0-.614.723,1.113,1.113,0,0,0,.085.874c.853,1.541,2.318,1.881,4.357,1.007a16.852,16.852,0,0,0,8.451-10.612A9.411,9.411,0,0,0,57.715,27.8l.487-.45a10.169,10.169,0,0,1,2.683,9.33,17.612,17.612,0,0,1-8.839,11.085A5.708,5.708,0,0,1,49.817,48.282Z" transform="translate(-15.708 -9.213)" fill="none" stroke="#fff" stroke-miterlimit="10" stroke-width="1"/>
      <path id="패스_306" data-name="패스 306" d="M40.592,35.668a.995.995,0,1,1-.995-.995,1,1,0,0,1,.995.995" transform="translate(-13.005 -11.681)" fill="#fff"/>
      <circle id="타원_7" data-name="타원 7" cx="0.995" cy="0.995" r="0.995" transform="translate(25.598 22.992)" fill="none" stroke="#fff" stroke-miterlimit="10" stroke-width="1"/>
      <path id="패스_307" data-name="패스 307" d="M39.429,36.825A1.326,1.326,0,1,1,40.755,35.5a1.328,1.328,0,0,1-1.326,1.326m0-1.989a.663.663,0,1,0,.663.663.664.664,0,0,0-.663-.663" transform="translate(-12.836 -11.513)" fill="#fff"/>
      <path id="패스_308" data-name="패스 308" d="M39.429,36.825A1.326,1.326,0,1,1,40.755,35.5,1.328,1.328,0,0,1,39.429,36.825Zm0-1.989a.663.663,0,1,0,.663.663A.664.664,0,0,0,39.429,34.836Z" transform="translate(-12.836 -11.513)" fill="none" stroke="#fff" stroke-miterlimit="10" stroke-width="1"/>
      <path id="패스_309" data-name="패스 309" d="M59.921,9.351,56.727,10.41C52.593,3.578,44.011,4.395,44.011,4.395l-1.372-2.6a1.5,1.5,0,0,0-2.652.024c-5.751,11.026.1,18.155,2.359,20.34a2.389,2.389,0,0,0,1.784.677C53.336,22.349,57.256,17.887,61,10.611a.9.9,0,0,0-1.082-1.26M42.552,14.709a.995.995,0,1,1,.995-.995,1,1,0,0,1-.995.995m7.294,2.652a.995.995,0,1,1,.995-.995,1,1,0,0,1-.995.995" transform="translate(-12.644 -0.337)" fill="#fff"/>
      <path id="패스_310" data-name="패스 310" d="M59.921,9.351,56.727,10.41C52.593,3.578,44.011,4.395,44.011,4.395l-1.372-2.6a1.5,1.5,0,0,0-2.652.024c-5.751,11.026.1,18.155,2.359,20.34a2.389,2.389,0,0,0,1.784.677C53.336,22.349,57.256,17.887,61,10.611A.9.9,0,0,0,59.921,9.351ZM42.552,14.709a.995.995,0,1,1,.995-.995A1,1,0,0,1,42.552,14.709Zm7.294,2.652a.995.995,0,1,1,.995-.995A1,1,0,0,1,49.846,17.361Z" transform="translate(-12.644 -0.337)" fill="none" stroke="#fff" stroke-miterlimit="10" stroke-width="1"/>
      <path id="패스_311" data-name="패스 311" d="M43.85,23a2.736,2.736,0,0,1-1.894-.774c-2.064-2-8.338-9.39-2.422-20.732a1.842,1.842,0,0,1,1.63-1h0a1.787,1.787,0,0,1,1.6.969l1.273,2.412c1.377-.066,8.806-.117,12.666,5.963l2.946-.977a1.23,1.23,0,0,1,1.481,1.727c-3.855,7.486-7.9,11.915-17.15,12.4-.046,0-.092,0-.139,0M41.168,1.163h0a1.165,1.165,0,0,0-1.044.639c-5.548,10.636-.243,17.494,2.3,19.948a2.067,2.067,0,0,0,1.536.584c8.935-.471,12.85-4.772,16.6-12.044a.566.566,0,0,0-.683-.793L56.42,10.64l-.137-.227c-3.975-6.568-12.319-5.865-12.4-5.857l-.221.021-1.476-2.8a1.132,1.132,0,0,0-1.017-.616m8.518,16.361A1.326,1.326,0,1,1,51.013,16.2a1.328,1.328,0,0,1-1.326,1.326m0-1.989a.663.663,0,1,0,.663.663.664.664,0,0,0-.663-.663m-7.294-.663a1.326,1.326,0,1,1,1.326-1.326,1.328,1.328,0,0,1-1.326,1.326m0-1.989a.663.663,0,1,0,.663.663.664.664,0,0,0-.663-.663" transform="translate(-12.484 -0.169)" fill="#fff"/>
      <path id="패스_312" data-name="패스 312" d="M43.85,23a2.736,2.736,0,0,1-1.894-.774c-2.064-2-8.338-9.39-2.422-20.732a1.842,1.842,0,0,1,1.63-1h0a1.787,1.787,0,0,1,1.6.969l1.273,2.412c1.377-.066,8.806-.117,12.666,5.963l2.946-.977a1.23,1.23,0,0,1,1.481,1.727c-3.855,7.486-7.9,11.915-17.15,12.4C43.943,23,43.9,23,43.85,23ZM41.168,1.163h0a1.165,1.165,0,0,0-1.044.639c-5.548,10.636-.243,17.494,2.3,19.948a2.067,2.067,0,0,0,1.536.584c8.935-.471,12.85-4.772,16.6-12.044a.566.566,0,0,0-.683-.793L56.42,10.64l-.137-.227c-3.975-6.568-12.319-5.865-12.4-5.857l-.221.021-1.476-2.8A1.132,1.132,0,0,0,41.168,1.163Zm8.518,16.361A1.326,1.326,0,1,1,51.013,16.2,1.328,1.328,0,0,1,49.687,17.524Zm0-1.989a.663.663,0,1,0,.663.663A.664.664,0,0,0,49.687,15.535Zm-7.294-.663a1.326,1.326,0,1,1,1.326-1.326A1.328,1.328,0,0,1,42.393,14.872Zm0-1.989a.663.663,0,1,0,.663.663A.664.664,0,0,0,42.393,12.882Z" transform="translate(-12.484 -0.169)" fill="none" stroke="#fff" stroke-miterlimit="10" stroke-width="1"/>
      <path id="패스_313" data-name="패스 313" d="M81.685,29.237l4.177-9.284h1.7l4.191,9.284H89.933l-3.58-8.368h.69l-3.595,8.368Zm1.922-2.148.477-1.353h5l.464,1.353Z" transform="translate(-27.519 -6.722)" fill="#fff"/>
      <path id="패스_314" data-name="패스 314" d="M81.685,29.237l4.177-9.284h1.7l4.191,9.284H89.933l-3.58-8.368h.69l-3.595,8.368Zm1.922-2.148.477-1.353h5l.464,1.353Z" transform="translate(-27.519 -6.722)" fill="none" stroke="#fff" stroke-miterlimit="10" stroke-width="1"/>
      <path id="패스_315" data-name="패스 315" d="M98.624,29.237V19.953h1.419l5.822,7.162h-.7V19.953h1.7v9.284h-1.419l-5.808-7.162h.7v7.162Z" transform="translate(-33.225 -6.722)" fill="#fff"/>
      <path id="패스_316" data-name="패스 316" d="M98.624,29.237V19.953h1.419l5.822,7.162h-.7V19.953h1.7v9.284h-1.419l-5.808-7.162h.7v7.162Z" transform="translate(-33.225 -6.722)" fill="none" stroke="#fff" stroke-miterlimit="10" stroke-width="1"/>
      <rect id="사각형_59" data-name="사각형 59" width="1.725" height="9.284" transform="translate(76.141 13.231)" fill="#fff"/>
      <rect id="사각형_60" data-name="사각형 60" width="1.725" height="9.284" transform="translate(76.141 13.231)" fill="none" stroke="#fff" stroke-miterlimit="10" stroke-width="1"/>
      <path id="패스_317" data-name="패스 317" d="M121.184,29.237V19.953H122.6l4.058,6.777h-.743l3.992-6.777h1.419l.027,9.284H129.7V22.513h.332l-3.369,5.676h-.782l-3.448-5.676h.4v6.724Z" transform="translate(-40.825 -6.722)" fill="#fff"/>
      <path id="패스_318" data-name="패스 318" d="M121.184,29.237V19.953H122.6l4.058,6.777h-.743l3.992-6.777h1.419l.027,9.284H129.7V22.513h.332l-3.369,5.676h-.782l-3.448-5.676h.4v6.724Z" transform="translate(-40.825 -6.722)" fill="none" stroke="#fff" stroke-miterlimit="10" stroke-width="1"/>
      <path id="패스_319" data-name="패스 319" d="M138.3,29.237l4.177-9.284h1.7l4.191,9.284h-1.817l-3.58-8.368h.69l-3.595,8.368Zm1.922-2.148.477-1.353h5l.464,1.353Z" transform="translate(-46.593 -6.722)" fill="#fff"/>
      <path id="패스_320" data-name="패스 320" d="M138.3,29.237l4.177-9.284h1.7l4.191,9.284h-1.817l-3.58-8.368h.69l-3.595,8.368Zm1.922-2.148.477-1.353h5l.464,1.353Z" transform="translate(-46.593 -6.722)" fill="none" stroke="#fff" stroke-miterlimit="10" stroke-width="1"/>
      <path id="패스_321" data-name="패스 321" d="M155.243,29.237V19.953h1.725v7.825h4.853v1.459Z" transform="translate(-52.299 -6.722)" fill="#fff"/>
      <path id="패스_322" data-name="패스 322" d="M155.243,29.237V19.953h1.725v7.825h4.853v1.459Z" transform="translate(-52.299 -6.722)" fill="none" stroke="#fff" stroke-miterlimit="10" stroke-width="1"/>
      <path id="패스_323" data-name="패스 323" d="M83.664,53.237V43.953h3.82a5.2,5.2,0,0,1,2.116.391,3.021,3.021,0,0,1,1.359,1.134,3.211,3.211,0,0,1,.477,1.777,3.008,3.008,0,0,1-1.836,2.9,5.055,5.055,0,0,1-2.116.4H84.632l.757-.8v3.475Zm1.725-3.289-.757-.849H87.4a2.617,2.617,0,0,0,1.718-.484,1.89,1.89,0,0,0,0-2.719,2.617,2.617,0,0,0-1.718-.484H84.632l.757-.849Z" transform="translate(-28.185 -14.807)" fill="#fff"/>
      <path id="패스_324" data-name="패스 324" d="M83.664,53.237V43.953h3.82a5.2,5.2,0,0,1,2.116.391,3.021,3.021,0,0,1,1.359,1.134,3.211,3.211,0,0,1,.477,1.777,3.008,3.008,0,0,1-1.836,2.9,5.055,5.055,0,0,1-2.116.4H84.632l.757-.8v3.475Zm1.725-3.289-.757-.849H87.4a2.617,2.617,0,0,0,1.718-.484,1.89,1.89,0,0,0,0-2.719,2.617,2.617,0,0,0-1.718-.484H84.632l.757-.849Z" transform="translate(-28.185 -14.807)" fill="none" stroke="#fff" stroke-miterlimit="10" stroke-width="1"/>
      <path id="패스_325" data-name="패스 325" d="M99.46,53.237V45.412H96.383V43.953h7.878v1.459h-3.076v7.825Z" transform="translate(-32.47 -14.807)" fill="#fff"/>
      <path id="패스_326" data-name="패스 326" d="M99.46,53.237V45.412H96.383V43.953h7.878v1.459h-3.076v7.825Z" transform="translate(-32.47 -14.807)" fill="none" stroke="#fff" stroke-miterlimit="10" stroke-width="1"/>
      <path id="패스_327" data-name="패스 327" d="M114.237,53.3a5.455,5.455,0,0,1-2-.358,4.77,4.77,0,0,1-1.6-1.008,4.573,4.573,0,0,1-1.047-1.518,5.022,5.022,0,0,1,0-3.794,4.509,4.509,0,0,1,1.047-1.512,4.864,4.864,0,0,1,1.591-1,5.451,5.451,0,0,1,2-.358,5.513,5.513,0,0,1,1.989.351,4.7,4.7,0,0,1,1.585.995,4.56,4.56,0,0,1,1.041,1.519,4.843,4.843,0,0,1,.371,1.91,4.8,4.8,0,0,1-.371,1.9,4.6,4.6,0,0,1-2.626,2.52,5.513,5.513,0,0,1-1.989.351m0-1.512a3.414,3.414,0,0,0,1.292-.239,3.067,3.067,0,0,0,1.028-.676,3.132,3.132,0,0,0,.682-1.034,3.417,3.417,0,0,0,.245-1.313,3.517,3.517,0,0,0-.238-1.313,3,3,0,0,0-.683-1.034,3.132,3.132,0,0,0-1.035-.676,3.414,3.414,0,0,0-1.292-.239,3.523,3.523,0,0,0-1.307.239,2.984,2.984,0,0,0-1.04.683,3.355,3.355,0,0,0,0,4.682,2.974,2.974,0,0,0,1.04.683,3.523,3.523,0,0,0,1.307.239" transform="translate(-36.796 -14.74)" fill="#fff"/>
      <path id="패스_328" data-name="패스 328" d="M114.237,53.3a5.455,5.455,0,0,1-2-.358,4.77,4.77,0,0,1-1.6-1.008,4.573,4.573,0,0,1-1.047-1.518,5.022,5.022,0,0,1,0-3.794,4.509,4.509,0,0,1,1.047-1.512,4.864,4.864,0,0,1,1.591-1,5.451,5.451,0,0,1,2-.358,5.513,5.513,0,0,1,1.989.351,4.7,4.7,0,0,1,1.585.995,4.56,4.56,0,0,1,1.041,1.519,4.843,4.843,0,0,1,.371,1.91,4.8,4.8,0,0,1-.371,1.9,4.6,4.6,0,0,1-2.626,2.52A5.513,5.513,0,0,1,114.237,53.3Zm0-1.512a3.414,3.414,0,0,0,1.292-.239,3.067,3.067,0,0,0,1.028-.676,3.132,3.132,0,0,0,.682-1.034,3.417,3.417,0,0,0,.245-1.313,3.517,3.517,0,0,0-.238-1.313,3,3,0,0,0-.683-1.034,3.132,3.132,0,0,0-1.035-.676,3.414,3.414,0,0,0-1.292-.239,3.523,3.523,0,0,0-1.307.239,2.984,2.984,0,0,0-1.04.683,3.355,3.355,0,0,0,0,4.682,2.974,2.974,0,0,0,1.04.683A3.523,3.523,0,0,0,114.237,51.79Z" transform="translate(-36.796 -14.74)" fill="none" stroke="#fff" stroke-miterlimit="10" stroke-width="1"/>
      <path id="패스_329" data-name="패스 329" d="M128.34,53.237V45.412h-3.077V43.953h7.878v1.459h-3.076v7.825Z" transform="translate(-42.2 -14.807)" fill="#fff"/>
      <path id="패스_330" data-name="패스 330" d="M128.34,53.237V45.412h-3.077V43.953h7.878v1.459h-3.076v7.825Z" transform="translate(-42.2 -14.807)" fill="none" stroke="#fff" stroke-miterlimit="10" stroke-width="1"/>
      <path id="패스_331" data-name="패스 331" d="M140.828,51.778h5.239v1.459H139.1V43.953h6.776v1.459h-5.052Zm-.133-3.965h4.615v1.419H140.7Z" transform="translate(-46.862 -14.807)" fill="#fff"/>
      <path id="패스_332" data-name="패스 332" d="M140.828,51.778h5.239v1.459H139.1V43.953h6.776v1.459h-5.052Zm-.133-3.965h4.615v1.419H140.7Z" transform="translate(-46.862 -14.807)" fill="none" stroke="#fff" stroke-miterlimit="10" stroke-width="1"/>
      <path id="패스_333" data-name="패스 333" d="M156.484,53.3a5.414,5.414,0,0,1-1.976-.351,4.644,4.644,0,0,1-2.613-2.513,5.1,5.1,0,0,1,0-3.82,4.59,4.59,0,0,1,1.047-1.512,4.74,4.74,0,0,1,1.579-1,5.732,5.732,0,0,1,4.058.04,4.127,4.127,0,0,1,1.592,1.16l-1.114,1.048a3.509,3.509,0,0,0-1.141-.816,3.315,3.315,0,0,0-1.339-.272,3.59,3.59,0,0,0-1.333.239,3.086,3.086,0,0,0-1.048.676,3.154,3.154,0,0,0-.7,1.034,3.545,3.545,0,0,0,0,2.625,3.15,3.15,0,0,0,.7,1.035,3.1,3.1,0,0,0,1.048.676,3.577,3.577,0,0,0,1.333.239,3.315,3.315,0,0,0,1.339-.272,3.439,3.439,0,0,0,1.141-.829l1.114,1.048a4.191,4.191,0,0,1-1.592,1.167,5.33,5.33,0,0,1-2.095.4" transform="translate(-51.046 -14.74)" fill="#fff"/>
      <path id="패스_334" data-name="패스 334" d="M156.484,53.3a5.414,5.414,0,0,1-1.976-.351,4.644,4.644,0,0,1-2.613-2.513,5.1,5.1,0,0,1,0-3.82,4.59,4.59,0,0,1,1.047-1.512,4.74,4.74,0,0,1,1.579-1,5.732,5.732,0,0,1,4.058.04,4.127,4.127,0,0,1,1.592,1.16l-1.114,1.048a3.509,3.509,0,0,0-1.141-.816,3.315,3.315,0,0,0-1.339-.272,3.59,3.59,0,0,0-1.333.239,3.086,3.086,0,0,0-1.048.676,3.154,3.154,0,0,0-.7,1.034,3.545,3.545,0,0,0,0,2.625,3.15,3.15,0,0,0,.7,1.035,3.1,3.1,0,0,0,1.048.676,3.577,3.577,0,0,0,1.333.239,3.315,3.315,0,0,0,1.339-.272,3.439,3.439,0,0,0,1.141-.829l1.114,1.048a4.191,4.191,0,0,1-1.592,1.167A5.33,5.33,0,0,1,156.484,53.3Z" transform="translate(-51.046 -14.74)" fill="none" stroke="#fff" stroke-miterlimit="10" stroke-width="1"/>
      <path id="패스_335" data-name="패스 335" d="M168.34,53.237V45.412h-3.077V43.953h7.878v1.459h-3.076v7.825Z" transform="translate(-55.675 -14.807)" fill="#fff"/>
      <path id="패스_336" data-name="패스 336" d="M168.34,53.237V45.412h-3.077V43.953h7.878v1.459h-3.076v7.825Z" transform="translate(-55.675 -14.807)" fill="none" stroke="#fff" stroke-miterlimit="10" stroke-width="1"/>
      <rect id="사각형_61" data-name="사각형 61" width="1.725" height="9.284" transform="translate(118.766 29.146)" fill="#fff"/>
      <rect id="사각형_62" data-name="사각형 62" width="1.725" height="9.284" transform="translate(118.766 29.146)" fill="none" stroke="#fff" stroke-miterlimit="10" stroke-width="1"/>
      <path id="패스_337" data-name="패스 337" d="M189.476,53.3a5.455,5.455,0,0,1-2-.358,4.77,4.77,0,0,1-1.6-1.008,4.573,4.573,0,0,1-1.047-1.518,5.022,5.022,0,0,1,0-3.794,4.509,4.509,0,0,1,1.047-1.512,4.863,4.863,0,0,1,1.591-1,5.451,5.451,0,0,1,2-.358,5.513,5.513,0,0,1,1.989.351,4.7,4.7,0,0,1,1.585.995,4.56,4.56,0,0,1,1.041,1.519,4.843,4.843,0,0,1,.371,1.91,4.8,4.8,0,0,1-.371,1.9,4.6,4.6,0,0,1-2.626,2.52,5.513,5.513,0,0,1-1.989.351m0-1.512a3.415,3.415,0,0,0,1.292-.239,3.067,3.067,0,0,0,1.028-.676,3.132,3.132,0,0,0,.682-1.034,3.417,3.417,0,0,0,.245-1.313,3.518,3.518,0,0,0-.238-1.313,3,3,0,0,0-.683-1.034,3.132,3.132,0,0,0-1.035-.676,3.415,3.415,0,0,0-1.292-.239,3.523,3.523,0,0,0-1.307.239,2.984,2.984,0,0,0-1.04.683,3.355,3.355,0,0,0,0,4.682,2.974,2.974,0,0,0,1.04.683,3.523,3.523,0,0,0,1.307.239" transform="translate(-62.143 -14.74)" fill="#fff"/>
      <path id="패스_338" data-name="패스 338" d="M189.476,53.3a5.455,5.455,0,0,1-2-.358,4.77,4.77,0,0,1-1.6-1.008,4.573,4.573,0,0,1-1.047-1.518,5.022,5.022,0,0,1,0-3.794,4.509,4.509,0,0,1,1.047-1.512,4.863,4.863,0,0,1,1.591-1,5.451,5.451,0,0,1,2-.358,5.513,5.513,0,0,1,1.989.351,4.7,4.7,0,0,1,1.585.995,4.56,4.56,0,0,1,1.041,1.519,4.843,4.843,0,0,1,.371,1.91,4.8,4.8,0,0,1-.371,1.9,4.6,4.6,0,0,1-2.626,2.52A5.513,5.513,0,0,1,189.476,53.3Zm0-1.512a3.415,3.415,0,0,0,1.292-.239,3.067,3.067,0,0,0,1.028-.676,3.132,3.132,0,0,0,.682-1.034,3.417,3.417,0,0,0,.245-1.313,3.518,3.518,0,0,0-.238-1.313,3,3,0,0,0-.683-1.034,3.132,3.132,0,0,0-1.035-.676,3.415,3.415,0,0,0-1.292-.239,3.523,3.523,0,0,0-1.307.239,2.984,2.984,0,0,0-1.04.683,3.355,3.355,0,0,0,0,4.682,2.974,2.974,0,0,0,1.04.683A3.523,3.523,0,0,0,189.476,51.79Z" transform="translate(-62.143 -14.74)" fill="none" stroke="#fff" stroke-miterlimit="10" stroke-width="1"/>
      <path id="패스_339" data-name="패스 339" d="M202.3,53.237V43.953h1.419l5.822,7.162h-.7V43.953h1.7v9.284H209.12l-5.808-7.162h.7v7.162Z" transform="translate(-68.153 -14.807)" fill="#fff"/>
      <path id="패스_340" data-name="패스 340" d="M202.3,53.237V43.953h1.419l5.822,7.162h-.7V43.953h1.7v9.284H209.12l-5.808-7.162h.7v7.162Z" transform="translate(-68.153 -14.807)" fill="none" stroke="#fff" stroke-miterlimit="10" stroke-width="1"/>
    </g>
  </g>
</svg>
