<svg xmlns="http://www.w3.org/2000/svg" xmlns:xlink="http://www.w3.org/1999/xlink" width="113" height="113" viewBox="0 0 113 113">
  <defs>
    <clipPath id="clip-path">
      <rect id="사각형_42" data-name="사각형 42" width="113" height="113" fill="none"/>
    </clipPath>
  </defs>
  <g id="slogan" style="mix-blend-mode: difference;isolation: isolate">
    <g id="그룹_15" data-name="그룹 15" transform="translate(0 0)" clip-path="url(#clip-path)">
      <path id="패스_156" data-name="패스 156" d="M61.749,47.411s-7.32-5.023-12.281,2.182c0,0-1.984,5.146,2.976,14.409,2.937,5.483-.384,6.639-3.584,6.668A6,6,0,0,1,43.1,66.044a36.7,36.7,0,0,1-.578-15.422S31.609,69.148,36.57,84.587c4.882,15.194-36.946-27.51-2.988-64.15a5.17,5.17,0,0,1,5.81-1.419c1.845.809,3.266,2.9,1.568,8.005-3.4,10.219-16.295,6.1-11.334,46.243,0,0-3.969-37.053,26.788-39.111" transform="translate(-0.158 0.545)" fill="#fff"/>
      <path id="패스_157" data-name="패스 157" d="M61.749,47.411s-7.32-5.023-12.281,2.182c0,0-1.984,5.146,2.976,14.409,2.937,5.483-.384,6.639-3.584,6.668A6,6,0,0,1,43.1,66.044a36.7,36.7,0,0,1-.578-15.422S31.609,69.148,36.57,84.587c4.882,15.194-36.946-27.51-2.988-64.15a5.17,5.17,0,0,1,5.81-1.419c1.845.809,3.266,2.9,1.568,8.005-3.4,10.219-16.295,6.1-11.334,46.243,0,0-3.969-37.053,26.788-39.111" transform="translate(-0.158 0.545)" fill="none" stroke="#fff" stroke-miterlimit="10" stroke-width="1"/>
      <path id="패스_158" data-name="패스 158" d="M74.634,48.859s6.945,3.088,3.969,10.292c-2.184,5.285-8.1,8.909-11.1,10.464a2.374,2.374,0,0,0-1,3.189c.95,1.781,2.974,3.641,7.147,1.786,6.945-3.088,20.067-18.5,9.041-30.864" transform="translate(-0.52 1.278)" fill="#fff"/>
      <path id="패스_159" data-name="패스 159" d="M74.634,48.859s6.945,3.088,3.969,10.292c-2.184,5.285-8.1,8.909-11.1,10.464a2.374,2.374,0,0,0-1,3.189c.95,1.781,2.974,3.641,7.147,1.786,6.945-3.088,20.067-18.5,9.041-30.864" transform="translate(-0.52 1.278)" fill="none" stroke="#fff" stroke-miterlimit="10" stroke-width="1"/>
      <path id="패스_160" data-name="패스 160" d="M60.677,52.257a1.489,1.489,0,1,1-1.488-1.544,1.517,1.517,0,0,1,1.488,1.544" transform="translate(-0.453 1.483)" fill="#fff"/>
      <ellipse id="타원_4" data-name="타원 4" cx="1.488" cy="1.544" rx="1.488" ry="1.544" transform="translate(57.247 52.195)" fill="none" stroke="#fff" stroke-miterlimit="10" stroke-width="1"/>
      <path id="패스_161" data-name="패스 161" d="M90.129,30,85.35,31.645c-6.185-10.6-19.025-9.336-19.025-9.336l-2.053-4.038a2.2,2.2,0,0,0-3.968.037c-8.6,17.113.149,28.18,3.53,31.571A3.5,3.5,0,0,0,66.5,50.93c13.773-.753,19.637-7.679,25.244-18.973A1.376,1.376,0,0,0,90.129,30M64.141,38.317a1.545,1.545,0,1,1,1.488-1.544,1.517,1.517,0,0,1-1.488,1.544m10.914,4.117a1.545,1.545,0,1,1,1.488-1.544,1.517,1.517,0,0,1-1.488,1.544" transform="translate(-0.445 0.498)" fill="#fff"/>
      <path id="패스_162" data-name="패스 162" d="M90.129,30,85.35,31.645c-6.185-10.6-19.025-9.336-19.025-9.336l-2.053-4.038a2.2,2.2,0,0,0-3.968.037c-8.6,17.113.149,28.18,3.53,31.571A3.5,3.5,0,0,0,66.5,50.93c13.773-.753,19.637-7.679,25.244-18.973A1.376,1.376,0,0,0,90.129,30ZM64.141,38.317a1.545,1.545,0,1,1,1.488-1.544A1.517,1.517,0,0,1,64.141,38.317Zm10.914,4.117a1.545,1.545,0,1,1,1.488-1.544A1.517,1.517,0,0,1,75.055,42.434Z" transform="translate(-0.445 0.498)" fill="none" stroke="#fff" stroke-miterlimit="10" stroke-width="1"/>
      <path id="패스_163" data-name="패스 163" d="M.74,66.747l11.663.682.863,2.367L4.976,78.362l-.918-2.515,7.427-7.262.351.961L1.636,69.2ZM3.726,68.23,5.7,68.148,7.655,73.5,6.128,74.814Z" transform="translate(-0.006 1.952)" fill="#fff"/>
      <path id="패스_164" data-name="패스 164" d="M.74,66.747l11.663.682.863,2.367L4.976,78.362l-.918-2.515,7.427-7.262.351.961L1.636,69.2ZM3.726,68.23,5.7,68.148,7.655,73.5,6.128,74.814Z" transform="translate(-0.006 1.952)" fill="none" stroke="#fff" stroke-miterlimit="10" stroke-width="1"/>
      <path id="패스_165" data-name="패스 165" d="M16.028,79.832a4.052,4.052,0,0,1,.64,1.733,3.012,3.012,0,0,1-.322,1.729,4.3,4.3,0,0,1-1.465,1.558l-3.916,2.691L9.651,85.486,13.261,83a2.175,2.175,0,0,0,.981-1.216,1.694,1.694,0,0,0-.284-1.332,2.131,2.131,0,0,0-.764-.737,1.654,1.654,0,0,0-.985-.2,2.617,2.617,0,0,0-1.182.5L7.647,82.347,6.333,80.29l6.839-4.7,1.255,1.965-1.894,1.3.336-.763a2.949,2.949,0,0,1,1.754.369,3.974,3.974,0,0,1,1.4,1.369" transform="translate(-0.05 2.21)" fill="#fff"/>
      <path id="패스_166" data-name="패스 166" d="M16.028,79.832a4.052,4.052,0,0,1,.64,1.733,3.012,3.012,0,0,1-.322,1.729,4.3,4.3,0,0,1-1.465,1.558l-3.916,2.691L9.651,85.486,13.261,83a2.175,2.175,0,0,0,.981-1.216,1.694,1.694,0,0,0-.284-1.332,2.131,2.131,0,0,0-.764-.737,1.654,1.654,0,0,0-.985-.2,2.617,2.617,0,0,0-1.182.5L7.647,82.347,6.333,80.29l6.839-4.7,1.255,1.965-1.894,1.3.336-.763a2.949,2.949,0,0,1,1.754.369A3.974,3.974,0,0,1,16.028,79.832Z" transform="translate(-0.05 2.21)" fill="none" stroke="#fff" stroke-miterlimit="10" stroke-width="1"/>
      <path id="패스_167" data-name="패스 167" d="M13.113,89.776l6.084-5.71,1.6,1.83-6.084,5.71Zm7.73-5.592a1.612,1.612,0,0,1-.443-1.1,1.3,1.3,0,0,1,.425-.975,1.211,1.211,0,0,1,.977-.342,1.512,1.512,0,0,1,1.009.568,1.679,1.679,0,0,1,.455,1.076,1.224,1.224,0,0,1-.4.965,1.269,1.269,0,0,1-1.006.367,1.494,1.494,0,0,1-1.015-.562" transform="translate(-0.103 2.391)" fill="#fff"/>
      <path id="패스_168" data-name="패스 168" d="M13.113,89.776l6.084-5.71,1.6,1.83-6.084,5.71Zm7.73-5.592a1.612,1.612,0,0,1-.443-1.1,1.3,1.3,0,0,1,.425-.975,1.211,1.211,0,0,1,.977-.342,1.512,1.512,0,0,1,1.009.568,1.679,1.679,0,0,1,.455,1.076,1.224,1.224,0,0,1-.4.965,1.269,1.269,0,0,1-1.006.367A1.494,1.494,0,0,1,20.843,84.184Z" transform="translate(-0.103 2.391)" fill="none" stroke="#fff" stroke-miterlimit="10" stroke-width="1"/>
      <path id="패스_169" data-name="패스 169" d="M30.393,93.818A3.823,3.823,0,0,1,31.561,95.2a2.944,2.944,0,0,1,.253,1.72,4.582,4.582,0,0,1-.865,1.978l-2.77,3.936-1.921-1.456,2.554-3.628a2.359,2.359,0,0,0,.538-1.474,1.478,1.478,0,0,0-.639-1.091,1.832,1.832,0,0,0-.9-.381,1.5,1.5,0,0,0-.925.2,2.894,2.894,0,0,0-.894.88L23.56,99.337l-1.921-1.455,2.555-3.628a2.352,2.352,0,0,0,.537-1.474,1.512,1.512,0,0,0-.663-1.11,1.8,1.8,0,0,0-.89-.372,1.551,1.551,0,0,0-.932.2,2.8,2.8,0,0,0-.9.876l-2.429,3.449L17,94.363l4.839-6.873,1.835,1.391-1.314,1.865.034-.8a2.744,2.744,0,0,1,1.723-.329,3.817,3.817,0,0,1,2.961,2.42,2.954,2.954,0,0,1-.118,2.153l-.543-.7a3.259,3.259,0,0,1,1.954-.469,3.735,3.735,0,0,1,2.025.8" transform="translate(-0.134 2.558)" fill="#fff"/>
      <path id="패스_170" data-name="패스 170" d="M30.393,93.818A3.823,3.823,0,0,1,31.561,95.2a2.944,2.944,0,0,1,.253,1.72,4.582,4.582,0,0,1-.865,1.978l-2.77,3.936-1.921-1.456,2.554-3.628a2.359,2.359,0,0,0,.538-1.474,1.478,1.478,0,0,0-.639-1.091,1.832,1.832,0,0,0-.9-.381,1.5,1.5,0,0,0-.925.2,2.894,2.894,0,0,0-.894.88L23.56,99.337l-1.921-1.455,2.555-3.628a2.352,2.352,0,0,0,.537-1.474,1.512,1.512,0,0,0-.663-1.11,1.8,1.8,0,0,0-.89-.372,1.551,1.551,0,0,0-.932.2,2.8,2.8,0,0,0-.9.876l-2.429,3.449L17,94.363l4.839-6.873,1.835,1.391-1.314,1.865.034-.8a2.744,2.744,0,0,1,1.723-.329,3.817,3.817,0,0,1,2.961,2.42,2.954,2.954,0,0,1-.118,2.153l-.543-.7a3.259,3.259,0,0,1,1.954-.469A3.735,3.735,0,0,1,30.393,93.818Z" transform="translate(-0.134 2.558)" fill="none" stroke="#fff" stroke-miterlimit="10" stroke-width="1"/>
      <path id="패스_171" data-name="패스 171" d="M34.21,105.205a3.74,3.74,0,0,1-1.4-.938A2.679,2.679,0,0,1,32.155,103a2.52,2.52,0,0,1,.918-2.456,2.23,2.23,0,0,1,1.374-.4,5.5,5.5,0,0,1,2.012.485l2.014.824-.5,1.324-1.787-.731a1.727,1.727,0,0,0-1.172-.174.891.891,0,0,0-.543.542.914.914,0,0,0,.067.836,1.6,1.6,0,0,0,.8.627,2.092,2.092,0,0,0,1.115.15,1.488,1.488,0,0,0,.939-.551l-.067,1.213a2.15,2.15,0,0,1-1.314.78,3.233,3.233,0,0,1-1.8-.27m2.371.836.587-1.545-.013-.4,1.053-2.767a1.643,1.643,0,0,0,0-1.325,2.072,2.072,0,0,0-1.17-.955,4.031,4.031,0,0,0-1.274-.292,3.511,3.511,0,0,0-1.219.121l-.17-1.923a4.631,4.631,0,0,1,1.775-.1,7.217,7.217,0,0,1,1.88.489,4.391,4.391,0,0,1,2.384,1.963,3.681,3.681,0,0,1-.049,3.059l-1.719,4.517Z" transform="translate(-0.252 2.831)" fill="#fff"/>
      <path id="패스_172" data-name="패스 172" d="M34.21,105.205a3.74,3.74,0,0,1-1.4-.938A2.679,2.679,0,0,1,32.155,103a2.52,2.52,0,0,1,.918-2.456,2.23,2.23,0,0,1,1.374-.4,5.5,5.5,0,0,1,2.012.485l2.014.824-.5,1.324-1.787-.731a1.727,1.727,0,0,0-1.172-.174.891.891,0,0,0-.543.542.914.914,0,0,0,.067.836,1.6,1.6,0,0,0,.8.627,2.092,2.092,0,0,0,1.115.15,1.488,1.488,0,0,0,.939-.551l-.067,1.213a2.15,2.15,0,0,1-1.314.78A3.233,3.233,0,0,1,34.21,105.205Zm2.371.836.587-1.545-.013-.4,1.053-2.767a1.643,1.643,0,0,0,0-1.325,2.072,2.072,0,0,0-1.17-.955,4.031,4.031,0,0,0-1.274-.292,3.511,3.511,0,0,0-1.219.121l-.17-1.923a4.631,4.631,0,0,1,1.775-.1,7.217,7.217,0,0,1,1.88.489,4.391,4.391,0,0,1,2.384,1.963,3.681,3.681,0,0,1-.049,3.059l-1.719,4.517Z" transform="translate(-0.252 2.831)" fill="none" stroke="#fff" stroke-miterlimit="10" stroke-width="1"/>
      <path id="패스_502" data-name="패스 502" d="M0,.02l11.716-.1L11.7,2.309-.016,2.4Z" transform="translate(41.375 110.51) rotate(-76.555)" fill="#fff"/>
      <path id="패스_503" data-name="패스 503" d="M0,.02l11.716-.1L11.7,2.309-.016,2.4Z" transform="translate(41.375 110.51) rotate(-76.555)" fill="none" stroke="#fff" stroke-width="1"/>
      <path id="패스_173" data-name="패스 173" d="M52.3,109.6l-.174-11.073,4.62-.078a5.83,5.83,0,0,1,2.478.441,3.658,3.658,0,0,1,1.622,1.358,4.339,4.339,0,0,1,.066,4.279,3.722,3.722,0,0,1-1.579,1.411,5.724,5.724,0,0,1-2.462.532l-3.264.055,1.111-1.173.065,4.208Zm2.424-3.965-1.147-1.2,3.125-.052a2.539,2.539,0,0,0,1.7-.535,1.793,1.793,0,0,0,.557-1.434,1.768,1.768,0,0,0-.6-1.406,2.557,2.557,0,0,0-1.715-.469l-3.126.052,1.109-1.237Z" transform="translate(-0.41 2.878)" fill="#fff"/>
      <path id="패스_174" data-name="패스 174" d="M52.3,109.6l-.174-11.073,4.62-.078a5.83,5.83,0,0,1,2.478.441,3.658,3.658,0,0,1,1.622,1.358,4.339,4.339,0,0,1,.066,4.279,3.722,3.722,0,0,1-1.579,1.411,5.724,5.724,0,0,1-2.462.532l-3.264.055,1.111-1.173.065,4.208Zm2.424-3.965-1.147-1.2,3.125-.052a2.539,2.539,0,0,0,1.7-.535,1.793,1.793,0,0,0,.557-1.434,1.768,1.768,0,0,0-.6-1.406,2.557,2.557,0,0,0-1.715-.469l-3.126.052,1.109-1.237Z" transform="translate(-0.41 2.878)" fill="none" stroke="#fff" stroke-miterlimit="10" stroke-width="1"/>
      <path id="패스_175" data-name="패스 175" d="M64.527,108.92l-1.5-8.368,2.234-.431.427,2.38-.44-.639a2.746,2.746,0,0,1,.913-1.569,3.927,3.927,0,0,1,1.851-.833l.4,2.255a2.614,2.614,0,0,0-.271,0,2.375,2.375,0,0,0-.25.032,2.215,2.215,0,0,0-1.47.88,2.455,2.455,0,0,0-.267,1.887l.709,3.95Z" transform="translate(-0.495 2.908)" fill="#fff"/>
      <path id="패스_176" data-name="패스 176" d="M64.527,108.92l-1.5-8.368,2.234-.431.427,2.38-.44-.639a2.746,2.746,0,0,1,.913-1.569,3.927,3.927,0,0,1,1.851-.833l.4,2.255a2.614,2.614,0,0,0-.271,0,2.375,2.375,0,0,0-.25.032,2.215,2.215,0,0,0-1.47.88,2.455,2.455,0,0,0-.267,1.887l.709,3.95Z" transform="translate(-0.495 2.908)" fill="none" stroke="#fff" stroke-miterlimit="10" stroke-width="1"/>
      <path id="패스_177" data-name="패스 177" d="M75.788,106.115a4.612,4.612,0,0,1-2.358.289,4.039,4.039,0,0,1-2.013-.894,4.251,4.251,0,0,1-1.292-1.91,4.441,4.441,0,0,1-.208-2.338,4.288,4.288,0,0,1,.983-2.025,4.814,4.814,0,0,1,1.983-1.351,4.749,4.749,0,0,1,2.377-.3,3.979,3.979,0,0,1,2.017.885,4.274,4.274,0,0,1,1.3,1.925,4.292,4.292,0,0,1-.784,4.358,4.841,4.841,0,0,1-2,1.367m-.672-1.9a2.128,2.128,0,0,0,.918-.643,2.066,2.066,0,0,0,.432-1.031,2.7,2.7,0,0,0-.154-1.29,2.561,2.561,0,0,0-.685-1.088,1.96,1.96,0,0,0-.966-.484,2.016,2.016,0,0,0-1.087.118,2.137,2.137,0,0,0-.911.64,2.075,2.075,0,0,0-.443,1.02,2.641,2.641,0,0,0,.154,1.289,2.614,2.614,0,0,0,.685,1.088,1.914,1.914,0,0,0,.979.5,2.032,2.032,0,0,0,1.079-.115" transform="translate(-0.549 2.852)" fill="#fff"/>
      <path id="패스_178" data-name="패스 178" d="M75.788,106.115a4.612,4.612,0,0,1-2.358.289,4.039,4.039,0,0,1-2.013-.894,4.251,4.251,0,0,1-1.292-1.91,4.441,4.441,0,0,1-.208-2.338,4.288,4.288,0,0,1,.983-2.025,4.814,4.814,0,0,1,1.983-1.351,4.749,4.749,0,0,1,2.377-.3,3.979,3.979,0,0,1,2.017.885,4.274,4.274,0,0,1,1.3,1.925,4.292,4.292,0,0,1-.784,4.358A4.841,4.841,0,0,1,75.788,106.115Zm-.672-1.9a2.128,2.128,0,0,0,.918-.643,2.066,2.066,0,0,0,.432-1.031,2.7,2.7,0,0,0-.154-1.29,2.561,2.561,0,0,0-.685-1.088,1.96,1.96,0,0,0-.966-.484,2.016,2.016,0,0,0-1.087.118,2.137,2.137,0,0,0-.911.64,2.075,2.075,0,0,0-.443,1.02,2.641,2.641,0,0,0,.154,1.289,2.614,2.614,0,0,0,.685,1.088,1.914,1.914,0,0,0,.979.5A2.032,2.032,0,0,0,75.116,104.214Z" transform="translate(-0.549 2.852)" fill="none" stroke="#fff" stroke-miterlimit="10" stroke-width="1"/>
      <path id="패스_179" data-name="패스 179" d="M78.519,98.078l-.908-1.648,4.94-2.926.908,1.648Zm6.891,3.46a3.119,3.119,0,0,1-2.327.494,2.866,2.866,0,0,1-1.795-1.569L77.72,93.979,79.8,92.748l3.547,6.443a1.164,1.164,0,0,0,.633.591.9.9,0,0,0,.772-.111,1.593,1.593,0,0,0,.7-.777l1.375,1.19a2.534,2.534,0,0,1-.556.794,4.319,4.319,0,0,1-.856.662" transform="translate(-0.61 2.712)" fill="#fff"/>
      <path id="패스_180" data-name="패스 180" d="M78.519,98.078l-.908-1.648,4.94-2.926.908,1.648Zm6.891,3.46a3.119,3.119,0,0,1-2.327.494,2.866,2.866,0,0,1-1.795-1.569L77.72,93.979,79.8,92.748l3.547,6.443a1.164,1.164,0,0,0,.633.591.9.9,0,0,0,.772-.111,1.593,1.593,0,0,0,.7-.777l1.375,1.19a2.534,2.534,0,0,1-.556.794A4.319,4.319,0,0,1,85.41,101.539Z" transform="translate(-0.61 2.712)" fill="none" stroke="#fff" stroke-miterlimit="10" stroke-width="1"/>
      <path id="패스_181" data-name="패스 181" d="M92.361,96.608a5.158,5.158,0,0,1-2.253,1.161,3.911,3.911,0,0,1-2.213-.145,4.1,4.1,0,0,1-1.819-1.373,4.5,4.5,0,0,1-.941-2.121A4.193,4.193,0,0,1,85.4,91.9,4.8,4.8,0,0,1,86.805,90a4.473,4.473,0,0,1,2.015-1,3.77,3.77,0,0,1,2.112.18A4.37,4.37,0,0,1,92.8,90.639c.058.073.12.161.186.262s.127.2.183.283l-5.177,4.353-.874-1.118,4.206-3.535-.463.939a2.192,2.192,0,0,0-.89-.738,1.835,1.835,0,0,0-1.023-.128,2.045,2.045,0,0,0-1,.482,2.192,2.192,0,0,0-.668.917,2,2,0,0,0-.092,1.076,2.486,2.486,0,0,0,.514,1.085l.23.3a2.268,2.268,0,0,0,.986.76,1.952,1.952,0,0,0,1.136.073,2.8,2.8,0,0,0,1.164-.622,3.135,3.135,0,0,0,.758-.9,2.982,2.982,0,0,0,.33-1.072l1.847.28a3.93,3.93,0,0,1-.482,1.719,5.406,5.406,0,0,1-1.313,1.561" transform="translate(-0.669 2.6)" fill="#fff"/>
      <path id="패스_182" data-name="패스 182" d="M92.361,96.608a5.158,5.158,0,0,1-2.253,1.161,3.911,3.911,0,0,1-2.213-.145,4.1,4.1,0,0,1-1.819-1.373,4.5,4.5,0,0,1-.941-2.121A4.193,4.193,0,0,1,85.4,91.9,4.8,4.8,0,0,1,86.805,90a4.473,4.473,0,0,1,2.015-1,3.77,3.77,0,0,1,2.112.18A4.37,4.37,0,0,1,92.8,90.639c.058.073.12.161.186.262s.127.2.183.283l-5.177,4.353-.874-1.118,4.206-3.535-.463.939a2.192,2.192,0,0,0-.89-.738,1.835,1.835,0,0,0-1.023-.128,2.045,2.045,0,0,0-1,.482,2.192,2.192,0,0,0-.668.917,2,2,0,0,0-.092,1.076,2.486,2.486,0,0,0,.514,1.085l.23.3a2.268,2.268,0,0,0,.986.76,1.952,1.952,0,0,0,1.136.073,2.8,2.8,0,0,0,1.164-.622,3.135,3.135,0,0,0,.758-.9,2.982,2.982,0,0,0,.33-1.072l1.847.28a3.93,3.93,0,0,1-.482,1.719A5.406,5.406,0,0,1,92.361,96.608Z" transform="translate(-0.669 2.6)" fill="none" stroke="#fff" stroke-miterlimit="10" stroke-width="1"/>
      <path id="패스_183" data-name="패스 183" d="M100.054,88.959a5.011,5.011,0,0,1-1.938,1.5,3.953,3.953,0,0,1-2.192.269,4.025,4.025,0,0,1-2.042-1A4.205,4.205,0,0,1,92.6,87.8a4.5,4.5,0,0,1-.092-2.282,5.194,5.194,0,0,1,1.107-2.231,4.573,4.573,0,0,1,1.878-1.427,3.03,3.03,0,0,1,2.072-.074l-.418,2.122a2.13,2.13,0,0,0-1.168.071,2.077,2.077,0,0,0-.875.64,2.329,2.329,0,0,0-.5,1.035,2.126,2.126,0,0,0,.083,1.132,2.5,2.5,0,0,0,.742,1.049,2.406,2.406,0,0,0,1.123.595,1.9,1.9,0,0,0,1.1-.092,2.225,2.225,0,0,0,.9-.677,2.182,2.182,0,0,0,.468-1,2.35,2.35,0,0,0-.133-1.218l1.952-.771A3.424,3.424,0,0,1,101.1,86.8a4.75,4.75,0,0,1-1.048,2.159" transform="translate(-0.726 2.387)" fill="#fff"/>
      <path id="패스_184" data-name="패스 184" d="M100.054,88.959a5.011,5.011,0,0,1-1.938,1.5,3.953,3.953,0,0,1-2.192.269,4.025,4.025,0,0,1-2.042-1A4.205,4.205,0,0,1,92.6,87.8a4.5,4.5,0,0,1-.092-2.282,5.194,5.194,0,0,1,1.107-2.231,4.573,4.573,0,0,1,1.878-1.427,3.03,3.03,0,0,1,2.072-.074l-.418,2.122a2.13,2.13,0,0,0-1.168.071,2.077,2.077,0,0,0-.875.64,2.329,2.329,0,0,0-.5,1.035,2.126,2.126,0,0,0,.083,1.132,2.5,2.5,0,0,0,.742,1.049,2.406,2.406,0,0,0,1.123.595,1.9,1.9,0,0,0,1.1-.092,2.225,2.225,0,0,0,.9-.677,2.182,2.182,0,0,0,.468-1,2.35,2.35,0,0,0-.133-1.218l1.952-.771A3.424,3.424,0,0,1,101.1,86.8,4.75,4.75,0,0,1,100.054,88.959Z" transform="translate(-0.726 2.387)" fill="none" stroke="#fff" stroke-miterlimit="10" stroke-width="1"/>
      <path id="패스_185" data-name="패스 185" d="M105.5,81.132a3.254,3.254,0,0,1-1.808,1.6,2.757,2.757,0,0,1-2.3-.476l-6.143-3.893,1.248-2.119,6.1,3.867a1.113,1.113,0,0,0,.829.2.943.943,0,0,0,.625-.485A1.657,1.657,0,0,0,104.3,78.8l1.758.354a2.633,2.633,0,0,1-.118.973,4.558,4.558,0,0,1-.442,1.009m-7.645.421-1.562-.989,2.965-5.036,1.562.989Z" transform="translate(-0.748 2.208)" fill="#fff"/>
      <path id="패스_186" data-name="패스 186" d="M105.5,81.132a3.254,3.254,0,0,1-1.808,1.6,2.757,2.757,0,0,1-2.3-.476l-6.143-3.893,1.248-2.119,6.1,3.867a1.113,1.113,0,0,0,.829.2.943.943,0,0,0,.625-.485A1.657,1.657,0,0,0,104.3,78.8l1.758.354a2.633,2.633,0,0,1-.118.973A4.558,4.558,0,0,1,105.5,81.132Zm-7.645.421-1.562-.989,2.965-5.036,1.562.989Z" transform="translate(-0.748 2.208)" fill="none" stroke="#fff" stroke-miterlimit="10" stroke-width="1"/>
      <path id="패스_187" data-name="패스 187" d="M99.346,72.315a1.558,1.558,0,0,1-.8.852,1.2,1.2,0,0,1-1.031-.026,1.273,1.273,0,0,1-.684-.8,1.852,1.852,0,0,1,.889-2.04,1.128,1.128,0,0,1,1.014.009,1.328,1.328,0,0,1,.717.818,1.616,1.616,0,0,1-.1,1.188m7.975,5.209-7.44-3.589,1-2.239,7.439,3.59Z" transform="translate(-0.76 2.052)" fill="#fff"/>
      <path id="패스_188" data-name="패스 188" d="M99.346,72.315a1.558,1.558,0,0,1-.8.852,1.2,1.2,0,0,1-1.031-.026,1.273,1.273,0,0,1-.684-.8,1.852,1.852,0,0,1,.889-2.04,1.128,1.128,0,0,1,1.014.009,1.328,1.328,0,0,1,.717.818A1.616,1.616,0,0,1,99.346,72.315Zm7.975,5.209-7.44-3.589,1-2.239,7.439,3.59Z" transform="translate(-0.76 2.052)" fill="none" stroke="#fff" stroke-miterlimit="10" stroke-width="1"/>
      <path id="패스_189" data-name="패스 189" d="M110.905,68.661a4.99,4.99,0,0,1-1.184,2.136,4.089,4.089,0,0,1-1.893,1.141,3.952,3.952,0,0,1-2.248-.065,4.1,4.1,0,0,1-1.933-1.222,4.279,4.279,0,0,1-.98-2.027,5.184,5.184,0,0,1,.139-2.457,5.127,5.127,0,0,1,1.183-2.16,3.917,3.917,0,0,1,4.15-1.083,4.072,4.072,0,0,1,1.927,1.22,4.346,4.346,0,0,1,.976,2.033,5.206,5.206,0,0,1-.137,2.484m-1.871-.576a2.274,2.274,0,0,0,.05-1.148,2.044,2.044,0,0,0-.541-.976,2.5,2.5,0,0,0-1.088-.64,2.371,2.371,0,0,0-1.25-.079,1.971,1.971,0,0,0-.951.516,2.191,2.191,0,0,0-.557.976,2.283,2.283,0,0,0-.048,1.14,2.059,2.059,0,0,0,.523.978,2.712,2.712,0,0,0,2.339.72,1.916,1.916,0,0,0,.967-.52,2.187,2.187,0,0,0,.556-.967" transform="translate(-0.806 1.834)" fill="#fff"/>
      <path id="패스_190" data-name="패스 190" d="M110.905,68.661a4.99,4.99,0,0,1-1.184,2.136,4.089,4.089,0,0,1-1.893,1.141,3.952,3.952,0,0,1-2.248-.065,4.1,4.1,0,0,1-1.933-1.222,4.279,4.279,0,0,1-.98-2.027,5.184,5.184,0,0,1,.139-2.457,5.127,5.127,0,0,1,1.183-2.16,3.917,3.917,0,0,1,4.15-1.083,4.072,4.072,0,0,1,1.927,1.22,4.346,4.346,0,0,1,.976,2.033A5.206,5.206,0,0,1,110.905,68.661Zm-1.871-.576a2.274,2.274,0,0,0,.05-1.148,2.044,2.044,0,0,0-.541-.976,2.5,2.5,0,0,0-1.088-.64,2.371,2.371,0,0,0-1.25-.079,1.971,1.971,0,0,0-.951.516,2.191,2.191,0,0,0-.557.976,2.283,2.283,0,0,0-.048,1.14,2.059,2.059,0,0,0,.523.978,2.712,2.712,0,0,0,2.339.72,1.916,1.916,0,0,0,.967-.52A2.187,2.187,0,0,0,109.034,68.084Z" transform="translate(-0.806 1.834)" fill="none" stroke="#fff" stroke-miterlimit="10" stroke-width="1"/>
      <path id="패스_191" data-name="패스 191" d="M104.708,55.535a4.059,4.059,0,0,1,.532-1.772,2.847,2.847,0,0,1,1.285-1.152,4.073,4.073,0,0,1,2.081-.283l4.681.4-.2,2.46-4.317-.368a2.047,2.047,0,0,0-1.494.324,1.666,1.666,0,0,0-.572,1.229,2.253,2.253,0,0,0,.16,1.069,1.765,1.765,0,0,0,.657.786,2.6,2.6,0,0,0,1.226.366l4.042.346-.2,2.46-8.176-.7.187-2.35,2.265.193-.719.383a3.124,3.124,0,0,1-1.158-1.416,4.2,4.2,0,0,1-.287-1.977" transform="translate(-0.821 1.529)" fill="#fff"/>
      <path id="패스_192" data-name="패스 192" d="M104.708,55.535a4.059,4.059,0,0,1,.532-1.772,2.847,2.847,0,0,1,1.285-1.152,4.073,4.073,0,0,1,2.081-.283l4.681.4-.2,2.46-4.317-.368a2.047,2.047,0,0,0-1.494.324,1.666,1.666,0,0,0-.572,1.229,2.253,2.253,0,0,0,.16,1.069,1.765,1.765,0,0,0,.657.786,2.6,2.6,0,0,0,1.226.366l4.042.346-.2,2.46-8.176-.7.187-2.35,2.265.193-.719.383a3.124,3.124,0,0,1-1.158-1.416A4.2,4.2,0,0,1,104.708,55.535Z" transform="translate(-0.821 1.529)" fill="none" stroke="#fff" stroke-miterlimit="10" stroke-width="1"/>
      <path id="패스_193" data-name="패스 193" d="M111.763,39.088a6.864,6.864,0,0,1,.1,2.416,5.728,5.728,0,0,1-.724,2.119,5.479,5.479,0,0,1-1.45,1.623,5.422,5.422,0,0,1-2.065.938,5.338,5.338,0,0,1-2.252.058A5.2,5.2,0,0,1,103.4,45.4a5.587,5.587,0,0,1-1.524-1.61,6.756,6.756,0,0,1-.893-2.233,6.84,6.84,0,0,1-.076-2.656,5.168,5.168,0,0,1,.966-2.232l1.777,1.293a3.827,3.827,0,0,0-.66,1.44A3.641,3.641,0,0,0,103,40.963a3.842,3.842,0,0,0,.543,1.334,3.27,3.27,0,0,0,.928.937,3.135,3.135,0,0,0,1.21.474,3.555,3.555,0,0,0,1.409-.058,3.618,3.618,0,0,0,1.3-.567,3.29,3.29,0,0,0,.9-.961,3.412,3.412,0,0,0,.457-1.257,3.933,3.933,0,0,0-.052-1.446,3.536,3.536,0,0,0-.64-1.417,3.753,3.753,0,0,0-1.194-1.013l1.082-1.951a5,5,0,0,1,1.794,1.6,6.665,6.665,0,0,1,1.026,2.454" transform="translate(-0.792 1.024)" fill="#fff"/>
      <path id="패스_194" data-name="패스 194" d="M111.763,39.088a6.864,6.864,0,0,1,.1,2.416,5.728,5.728,0,0,1-.724,2.119,5.479,5.479,0,0,1-1.45,1.623,5.422,5.422,0,0,1-2.065.938,5.338,5.338,0,0,1-2.252.058A5.2,5.2,0,0,1,103.4,45.4a5.587,5.587,0,0,1-1.524-1.61,6.756,6.756,0,0,1-.893-2.233,6.84,6.84,0,0,1-.076-2.656,5.168,5.168,0,0,1,.966-2.232l1.777,1.293a3.827,3.827,0,0,0-.66,1.44A3.641,3.641,0,0,0,103,40.963a3.842,3.842,0,0,0,.543,1.334,3.27,3.27,0,0,0,.928.937,3.135,3.135,0,0,0,1.21.474,3.555,3.555,0,0,0,1.409-.058,3.618,3.618,0,0,0,1.3-.567,3.29,3.29,0,0,0,.9-.961,3.412,3.412,0,0,0,.457-1.257,3.933,3.933,0,0,0-.052-1.446,3.536,3.536,0,0,0-.64-1.417,3.753,3.753,0,0,0-1.194-1.013l1.082-1.951a5,5,0,0,1,1.794,1.6A6.665,6.665,0,0,1,111.763,39.088Z" transform="translate(-0.792 1.024)" fill="none" stroke="#fff" stroke-miterlimit="10" stroke-width="1"/>
      <path id="패스_195" data-name="패스 195" d="M107.975,28.252a5.6,5.6,0,0,1,.52,2.554,4.318,4.318,0,0,1-.688,2.187,4.4,4.4,0,0,1-3.951,1.9,3.84,3.84,0,0,1-2.013-.82,4.784,4.784,0,0,1-1.427-1.89,4.847,4.847,0,0,1-.432-2.274,4.157,4.157,0,0,1,.694-2.077,4.392,4.392,0,0,1,1.833-1.512c.083-.039.18-.079.291-.12s.214-.078.311-.112l2.769,6.289-1.263.6-2.248-5.108.76.7a2.179,2.179,0,0,0-.911.71,1.994,1.994,0,0,0-.375.994,2.238,2.238,0,0,0,.2,1.123,2.187,2.187,0,0,0,.69.9,1.819,1.819,0,0,0,.98.361,2.281,2.281,0,0,0,1.142-.245l.332-.157a2.267,2.267,0,0,0,.955-.8,2.142,2.142,0,0,0,.352-1.123,3.028,3.028,0,0,0-.29-1.324,3.14,3.14,0,0,0-.653-.987,2.779,2.779,0,0,0-.917-.6l.722-1.786a3.653,3.653,0,0,1,1.483.914,5.459,5.459,0,0,1,1.13,1.709" transform="translate(-0.786 0.749)" fill="#fff"/>
      <path id="패스_196" data-name="패스 196" d="M107.975,28.252a5.6,5.6,0,0,1,.52,2.554,4.318,4.318,0,0,1-.688,2.187,4.4,4.4,0,0,1-3.951,1.9,3.84,3.84,0,0,1-2.013-.82,4.784,4.784,0,0,1-1.427-1.89,4.847,4.847,0,0,1-.432-2.274,4.157,4.157,0,0,1,.694-2.077,4.392,4.392,0,0,1,1.833-1.512c.083-.039.18-.079.291-.12s.214-.078.311-.112l2.769,6.289-1.263.6-2.248-5.108.76.7a2.179,2.179,0,0,0-.911.71,1.994,1.994,0,0,0-.375.994,2.238,2.238,0,0,0,.2,1.123,2.187,2.187,0,0,0,.69.9,1.819,1.819,0,0,0,.98.361,2.281,2.281,0,0,0,1.142-.245l.332-.157a2.267,2.267,0,0,0,.955-.8,2.142,2.142,0,0,0,.352-1.123,3.028,3.028,0,0,0-.29-1.324,3.14,3.14,0,0,0-.653-.987,2.779,2.779,0,0,0-.917-.6l.722-1.786a3.653,3.653,0,0,1,1.483.914A5.459,5.459,0,0,1,107.975,28.252Z" transform="translate(-0.786 0.749)" fill="none" stroke="#fff" stroke-miterlimit="10" stroke-width="1"/>
      <path id="패스_197" data-name="패스 197" d="M95.008,23.16a4.048,4.048,0,0,1-.714-1.7,3.027,3.027,0,0,1,.246-1.744,4.329,4.329,0,0,1,1.4-1.624l3.795-2.872,1.4,1.995-3.5,2.647a2.177,2.177,0,0,0-.927,1.26,1.686,1.686,0,0,0,.341,1.317,2.114,2.114,0,0,0,.795.7,1.65,1.65,0,0,0,.992.149,2.6,2.6,0,0,0,1.159-.554l3.278-2.479,1.4,1.995-6.629,5.014-1.339-1.9,1.836-1.388-.3.777a2.944,2.944,0,0,1-1.769-.287,3.951,3.951,0,0,1-1.462-1.3" transform="translate(-0.741 0.445)" fill="#fff"/>
      <path id="패스_198" data-name="패스 198" d="M95.008,23.16a4.048,4.048,0,0,1-.714-1.7,3.027,3.027,0,0,1,.246-1.744,4.329,4.329,0,0,1,1.4-1.624l3.795-2.872,1.4,1.995-3.5,2.647a2.177,2.177,0,0,0-.927,1.26,1.686,1.686,0,0,0,.341,1.317,2.114,2.114,0,0,0,.795.7,1.65,1.65,0,0,0,.992.149,2.6,2.6,0,0,0,1.159-.554l3.278-2.479,1.4,1.995-6.629,5.014-1.339-1.9,1.836-1.388-.3.777a2.944,2.944,0,0,1-1.769-.287A3.951,3.951,0,0,1,95.008,23.16Z" transform="translate(-0.741 0.445)" fill="none" stroke="#fff" stroke-miterlimit="10" stroke-width="1"/>
      <path id="패스_199" data-name="패스 199" d="M93.8,18.256,92.525,19.62,88.44,15.513l1.274-1.363Zm1.284-7.829a3.386,3.386,0,0,1,1.106,2.181,3,3,0,0,1-.953,2.224l-5.01,5.362-1.718-1.728,4.978-5.328a1.214,1.214,0,0,0,.371-.795.987.987,0,0,0-.319-.739,1.529,1.529,0,0,0-.913-.478l.718-1.7a2.38,2.38,0,0,1,.89.333,4.291,4.291,0,0,1,.851.668" transform="translate(-0.695 0.276)" fill="#fff"/>
      <path id="패스_200" data-name="패스 200" d="M93.8,18.256,92.525,19.62,88.44,15.513l1.274-1.363Zm1.284-7.829a3.386,3.386,0,0,1,1.106,2.181,3,3,0,0,1-.953,2.224l-5.01,5.362-1.718-1.728,4.978-5.328a1.214,1.214,0,0,0,.371-.795.987.987,0,0,0-.319-.739,1.529,1.529,0,0,0-.913-.478l.718-1.7a2.38,2.38,0,0,1,.89.333A4.291,4.291,0,0,1,95.082,10.426Z" transform="translate(-0.695 0.276)" fill="none" stroke="#fff" stroke-miterlimit="10" stroke-width="1"/>
      <path id="패스_201" data-name="패스 201" d="M88.447,5.116a5.367,5.367,0,0,1,1.7,1.923,4.278,4.278,0,0,1-.285,4.44A4.318,4.318,0,0,1,88.161,13a3.789,3.789,0,0,1-2.134.357,4.55,4.55,0,0,1-2.156-.872,4.644,4.644,0,0,1-1.487-1.729,4.168,4.168,0,0,1-.422-2.155A4.62,4.62,0,0,1,82.8,6.338c.053-.078.116-.165.191-.257s.146-.181.212-.261l5.47,3.949-.793,1.182L83.433,7.741l1,.2A2.3,2.3,0,0,0,84,9.035a2.031,2.031,0,0,0,.166,1.054,2.13,2.13,0,0,0,.723.859,2.081,2.081,0,0,0,1.036.411,1.813,1.813,0,0,0,1.021-.207,2.393,2.393,0,0,0,.862-.814l.208-.312a2.383,2.383,0,0,0,.43-1.193,2.15,2.15,0,0,0-.248-1.153,2.912,2.912,0,0,0-.9-.987,3,3,0,0,0-1.046-.5,2.7,2.7,0,0,0-1.084-.031l-.254-1.92a3.571,3.571,0,0,1,1.725,0,5.174,5.174,0,0,1,1.811.874" transform="translate(-0.644 0.121)" fill="#fff"/>
      <path id="패스_202" data-name="패스 202" d="M88.447,5.116a5.367,5.367,0,0,1,1.7,1.923,4.278,4.278,0,0,1-.285,4.44A4.318,4.318,0,0,1,88.161,13a3.789,3.789,0,0,1-2.134.357,4.55,4.55,0,0,1-2.156-.872,4.644,4.644,0,0,1-1.487-1.729,4.168,4.168,0,0,1-.422-2.155A4.62,4.62,0,0,1,82.8,6.338c.053-.078.116-.165.191-.257s.146-.181.212-.261l5.47,3.949-.793,1.182L83.433,7.741l1,.2A2.3,2.3,0,0,0,84,9.035a2.031,2.031,0,0,0,.166,1.054,2.13,2.13,0,0,0,.723.859,2.081,2.081,0,0,0,1.036.411,1.813,1.813,0,0,0,1.021-.207,2.393,2.393,0,0,0,.862-.814l.208-.312a2.383,2.383,0,0,0,.43-1.193,2.15,2.15,0,0,0-.248-1.153,2.912,2.912,0,0,0-.9-.987,3,3,0,0,0-1.046-.5,2.7,2.7,0,0,0-1.084-.031l-.254-1.92a3.571,3.571,0,0,1,1.725,0A5.174,5.174,0,0,1,88.447,5.116Z" transform="translate(-0.644 0.121)" fill="none" stroke="#fff" stroke-miterlimit="10" stroke-width="1"/>
      <path id="패스_203" data-name="패스 203" d="M82.663,1.73,79.127,9.41,77.076,8.395,78.082,6.21,78.076,7a2.592,2.592,0,0,1-1.628.71,3.869,3.869,0,0,1-1.969-.459l.953-2.069a2.735,2.735,0,0,0,.221.162,2.01,2.01,0,0,0,.22.127,2.164,2.164,0,0,0,1.688.188,2.337,2.337,0,0,0,1.286-1.362L80.516.667Z" transform="translate(-0.585 0.019)" fill="#fff"/>
      <path id="패스_204" data-name="패스 204" d="M82.663,1.73,79.127,9.41,77.076,8.395,78.082,6.21,78.076,7a2.592,2.592,0,0,1-1.628.71,3.869,3.869,0,0,1-1.969-.459l.953-2.069a2.735,2.735,0,0,0,.221.162,2.01,2.01,0,0,0,.22.127,2.164,2.164,0,0,0,1.688.188,2.337,2.337,0,0,0,1.286-1.362L80.516.667Z" transform="translate(-0.585 0.019)" fill="none" stroke="#fff" stroke-miterlimit="10" stroke-width="1"/>
    </g>
  </g>
</svg>
