<svg width="27" height="27" viewBox="0 0 27 27" fill="#fff" xmlns="http://www.w3.org/2000/svg">
<g clip-path="url(#clip0_10_315)">
<path d="M12.9375 12.6296C11.9991 12.6296 11.1957 12.2866 10.5274 11.6008C9.85915 10.9149 9.52501 10.0904 9.52501 9.1273C9.52501 8.16416 9.85915 7.33966 10.5274 6.65381C11.1957 5.96794 11.9991 5.625 12.9375 5.625C13.8759 5.625 14.6793 5.96794 15.3476 6.65381C16.0158 7.33966 16.35 8.16416 16.35 9.1273C16.35 10.0904 16.0158 10.9149 15.3476 11.6008C14.6793 12.2866 13.8759 12.6296 12.9375 12.6296ZM5.625 18.7298V18.0255C5.625 17.5354 5.75469 17.0816 6.01407 16.664C6.27344 16.2464 6.62 15.9254 7.05375 15.7009C8.0175 15.2159 8.98969 14.8522 9.97032 14.6098C10.9509 14.3673 11.94 14.2461 12.9375 14.2461C13.935 14.2461 14.9241 14.3673 15.9047 14.6098C16.8853 14.8522 17.8575 15.2159 18.8213 15.7009C19.255 15.9254 19.6016 16.2464 19.8609 16.664C20.1203 17.0816 20.25 17.5354 20.25 18.0255V18.7298C20.25 19.1519 20.1059 19.5107 19.8178 19.8064C19.5297 20.1021 19.18 20.25 18.7688 20.25H7.10622C6.69498 20.25 6.34531 20.1021 6.05719 19.8064C5.76906 19.5107 5.625 19.1519 5.625 18.7298ZM7.08748 18.749H18.7875V18.0255C18.7875 17.8228 18.7303 17.6351 18.6159 17.4626C18.5016 17.2901 18.3463 17.1493 18.15 17.0402C17.31 16.6156 16.4535 16.2939 15.5804 16.0751C14.7074 15.8564 13.8264 15.747 12.9375 15.747C12.0486 15.747 11.1676 15.8564 10.2946 16.0751C9.42151 16.2939 8.56498 16.6156 7.72499 17.0402C7.52873 17.1493 7.37342 17.2901 7.25906 17.4626C7.14467 17.6351 7.08748 17.8228 7.08748 18.0255V18.749ZM12.9375 11.1286C13.4738 11.1286 13.9328 10.9327 14.3147 10.5407C14.6966 10.1488 14.8875 9.67766 14.8875 9.1273C14.8875 8.57693 14.6966 8.10579 14.3147 7.71386C13.9328 7.32193 13.4738 7.12597 12.9375 7.12597C12.4012 7.12597 11.9422 7.32193 11.5603 7.71386C11.1784 8.10579 10.9875 8.57693 10.9875 9.1273C10.9875 9.67766 11.1784 10.1488 11.5603 10.5407C11.9422 10.9327 12.4012 11.1286 12.9375 11.1286Z" fill="white"/>
</g>
<defs>
<clipPath id="clip0_10_315">
<rect width="27" height="27" fill="white"/>
</clipPath>
</defs>
</svg>
